<svg xmlns="http://www.w3.org/2000/svg" xmlns:xlink="http://www.w3.org/1999/xlink" width="338.573" height="472.027" viewBox="0 0 253.93 354.02"><defs><path id="a" d="M10.406-6.281c0-2.375-1.547-3.813-3.547-3.813-3.078 0-6.171 3.297-6.171 6.61 0 2.25 1.5 3.78 3.578 3.78 3 0 6.14-3.14 6.14-6.577M4.344-.031c-1.172 0-2.422-.86-2.422-3.094 0-1.312.469-3.437 1.656-4.875 1.047-1.266 2.25-1.781 3.203-1.781 1.266 0 2.485.922 2.485 2.984 0 1.281-.547 3.266-1.5 4.625-1.047 1.469-2.36 2.14-3.422 2.14m0 0"/><path id="b" d="M2.438-1.594c-.5.844-.985 1.14-1.672 1.172-.157.016-.282.016-.282.281 0 .078.079.141.172.141.266 0 .907-.031 1.172-.031.406 0 .875.031 1.266.031.094 0 .265 0 .265-.266 0-.14-.125-.156-.203-.156-.328-.016-.61-.14-.61-.484 0-.203.095-.36.282-.672l1.094-1.813h3.656c.016.141.016.25.031.375.032.375.204 1.875.204 2.141 0 .438-.735.453-.954.453-.156 0-.312 0-.312.266 0 .156.125.156.203.156.25 0 .531-.031.781-.031h.813c.875 0 1.515.031 1.531.031.094 0 .25 0 .25-.266 0-.156-.125-.156-.344-.156-.781 0-.797-.125-.844-.547l-.874-8.953c-.032-.297-.094-.312-.25-.312-.141 0-.22.015-.36.234Zm1.718-2.203 2.89-4.828.485 4.828Zm0 0"/><path id="c" d="M5.25-8.828c.125-.531.188-.547.75-.547h1.86c1.624 0 1.624 1.375 1.624 1.5 0 1.156-1.171 2.64-3.062 2.64H4.359Zm2.422 3.703c1.562-.281 2.984-1.375 2.984-2.687 0-1.125-.984-1.985-2.61-1.985H3.439c-.266 0-.391 0-.391.266 0 .156.125.156.344.156.875 0 .875.11.875.266 0 .03 0 .109-.063.328L2.266-1.062c-.125.5-.157.64-1.157.64-.28 0-.421 0-.421.266C.688 0 .78 0 1.063 0h4.921c2.188 0 3.891-1.656 3.891-3.11 0-1.171-1.047-1.89-2.203-2.015M5.64-.422H3.703c-.203 0-.234 0-.312-.016-.157 0-.172-.03-.172-.156 0-.094.015-.187.047-.312L4.28-4.953h2.69c1.687 0 1.687 1.578 1.687 1.703 0 1.375-1.234 2.828-3.015 2.828m0 0"/><path id="f" d="M6.797-5.86c-.453.094-.625.438-.625.704 0 .343.266.468.469.468.437 0 .734-.375.734-.765 0-.594-.687-.875-1.297-.875-.875 0-1.36.86-1.484 1.14-.328-1.078-1.219-1.14-1.485-1.14-1.453 0-2.234 1.875-2.234 2.203 0 .047.063.125.156.125.11 0 .14-.094.172-.14.484-1.594 1.453-1.891 1.86-1.891.656 0 .78.593.78.937 0 .313-.077.64-.265 1.328l-.484 1.97c-.203.859-.625 1.655-1.39 1.655-.063 0-.423 0-.735-.187.515-.11.64-.531.64-.703 0-.282-.218-.453-.484-.453a.744.744 0 0 0-.719.75c0 .609.672.875 1.281.875.688 0 1.188-.547 1.485-1.125C3.406-.141 4.109.14 4.64.14c1.468 0 2.25-1.875 2.25-2.188 0-.078-.063-.14-.157-.14-.125 0-.14.078-.171.187C6.172-.734 5.328-.14 4.688-.14c-.5 0-.766-.376-.766-.97 0-.312.047-.546.281-1.484l.5-1.953c.219-.86.703-1.484 1.36-1.484.03 0 .437 0 .734.172m0 0"/><path id="g" d="M3.766 1.61c-.375.546-.938 1.03-1.641 1.03-.172 0-.86-.03-1.078-.687.047.016.11.016.14.016a.723.723 0 0 0 .72-.703c0-.328-.266-.453-.485-.453-.234 0-.734.171-.734.875 0 .734.625 1.234 1.437 1.234C3.563 2.922 5 1.609 5.406.016l1.407-5.594c.015-.078.046-.156.046-.25 0-.203-.171-.36-.39-.36-.125 0-.438.063-.547.5L4.859-1.484c-.062.265-.062.297-.187.453-.281.406-.75.89-1.438.89-.812 0-.875-.796-.875-1.171 0-.829.375-1.922.766-2.97.156-.405.25-.609.25-.89 0-.61-.437-1.156-1.14-1.156C.921-6.328.39-4.25.39-4.125c0 .047.046.125.156.125.125 0 .14-.062.203-.266.344-1.203.89-1.765 1.438-1.765.14 0 .374 0 .374.468 0 .375-.156.782-.374 1.329-.704 1.875-.704 2.359-.704 2.703C1.484-.171 2.47.14 3.188.14c.406 0 .921-.125 1.437-.657l.016.016c-.22.844-.36 1.406-.875 2.11m0 0"/><clipPath id="d"><path d="M9 14h244.93v332H9Zm0 0"/></clipPath><clipPath id="e"><path d="M9 313h233v41.02H9Zm0 0"/></clipPath></defs><path fill="none" stroke="#007f7f" stroke-miterlimit="10" stroke-width=".797" d="M26.559 328.648h198.425L26.56 16.836Zm0 0"/><use xlink:href="#a" x="11.713" y="342.172" fill="#007f7f"/><use xlink:href="#b" x="219.72" y="342.172" fill="#007f7f"/><use xlink:href="#c" x="20.86" y="13.116" fill="#007f7f"/><g clip-path="url(#d)"><path fill="none" stroke="#ff7f00" stroke-miterlimit="10" stroke-width="1.196" d="M224.984 328.648h28.348L26.559 31.008"/></g><g clip-path="url(#e)"><path fill="none" stroke="#007f7f" stroke-miterlimit="10" stroke-width="1.196" d="M224.984 330.64c-1.492 2.993-4.98 4.985-9.96 4.985h-79.29c-4.98 0-8.468 1.992-9.96 4.98-1.497-2.988-4.985-4.98-9.965-4.98h-79.29c-4.98 0-8.468-1.992-9.96-4.984"/></g><use xlink:href="#f" x="121.781" y="350.701" fill="#007f7f"/><path fill="none" stroke="#007f7f" stroke-miterlimit="10" stroke-width="1.196" d="M24.566 328.648c-2.988-1.492-4.98-4.98-4.98-9.96V182.707c0-4.984-1.996-8.469-4.984-9.965 2.988-1.492 4.984-4.98 4.984-9.96V26.796c0-4.98 1.992-8.469 4.98-9.961"/><use xlink:href="#g" x="3.32" y="174.436" fill="#007f7f"/></svg>