<svg xmlns="http://www.w3.org/2000/svg" xmlns:xlink="http://www.w3.org/1999/xlink" width="390.88" height="232.16" viewBox="0 0 293.16 174.12"><defs><path id="a" d="M7.11-6.125c-.485.094-.657.453-.657.734 0 .36.281.485.484.485.454 0 .766-.39.766-.797 0-.625-.719-.906-1.344-.906-.921 0-1.421.89-1.562 1.172C4.453-6.562 3.53-6.61 3.25-6.61 1.719-6.61.922-4.656.922-4.312c0 .046.047.125.156.125.125 0 .156-.094.188-.141C1.766-6 2.78-6.312 3.203-6.312c.688 0 .813.625.813.984 0 .328-.079.672-.266 1.39l-.516 2.063c-.218.906-.656 1.719-1.453 1.719-.078 0-.453 0-.765-.188a.79.79 0 0 0 .672-.734c0-.297-.235-.484-.516-.484-.36 0-.75.312-.75.796 0 .625.703.922 1.344.922C2.484.156 3-.422 3.313-1.03c.25.875 1 1.187 1.546 1.187 1.532 0 2.344-1.968 2.344-2.297 0-.078-.062-.14-.156-.14-.125 0-.14.078-.188.203C6.453-.766 5.58-.156 4.906-.156c-.531 0-.812-.39-.812-1 0-.328.062-.563.297-1.563l.53-2.031c.22-.906.735-1.562 1.423-1.562.031 0 .453 0 .765.187m0 0"/><path id="b" d="M7.547-10.031c.016-.063.047-.156.047-.235 0-.14-.157-.14-.188-.14-.015 0-.75.062-.828.078-.25.015-.469.031-.75.047-.375.031-.469.047-.469.328 0 .14.11.14.329.14.734 0 .75.141.75.282 0 .094-.032.219-.047.265l-.922 3.641c-.157-.39-.563-.984-1.344-.984C2.438-6.61.594-4.422.594-2.203c0 1.484.875 2.36 1.89 2.36.829 0 1.532-.657 1.954-1.141.156.875.859 1.14 1.312 1.14.438 0 .813-.281 1.078-.812.234-.516.453-1.422.453-1.485 0-.078-.062-.14-.156-.14-.14 0-.156.078-.203.297-.234.89-.516 1.828-1.125 1.828-.438 0-.469-.39-.469-.688 0-.062 0-.375.11-.797Zm-3.031 8.25c-.079.25-.079.281-.282.562-.328.422-1 1.063-1.703 1.063-.61 0-.953-.547-.953-1.438 0-.828.469-2.5.75-3.125.5-1.062 1.219-1.593 1.797-1.593.984 0 1.188 1.234 1.188 1.343 0 .016-.047.219-.063.25Zm0 0"/><path id="c" d="M3.938 1.688c-.391.562-.985 1.078-1.72 1.078-.171 0-.905-.032-1.124-.72a.6.6 0 0 0 .156.017c.438 0 .75-.391.75-.75 0-.344-.297-.454-.516-.454-.234 0-.765.172-.765.907 0 .765.64 1.297 1.5 1.297 1.5 0 3.015-1.376 3.437-3.047l1.469-5.844c.016-.078.047-.172.047-.266 0-.218-.188-.375-.406-.375-.141 0-.453.063-.578.516l-1.11 4.406c-.062.266-.062.297-.187.469-.297.422-.797.922-1.516.922-.844 0-.922-.813-.922-1.219 0-.86.406-2.016.813-3.094.172-.437.265-.64.265-.953 0-.625-.453-1.187-1.187-1.187C.954-6.61.406-4.437.406-4.312c0 .046.063.125.156.125.141 0 .157-.063.22-.266.359-1.266.921-1.86 1.515-1.86.14 0 .39 0 .39.5 0 .375-.171.813-.39 1.391-.735 1.969-.735 2.453-.735 2.813C1.563-.187 2.579.156 3.329.156c.438 0 .985-.14 1.5-.703l.016.016c-.219.89-.375 1.469-.907 2.219m0 0"/><path id="d" d="M3.047-3.703c.86-.281 1.469-1.016 1.469-1.844C4.516-6.407 3.594-7 2.578-7c-1.062 0-1.86.64-1.86 1.438 0 .343.235.546.548.546a.517.517 0 0 0 .53-.53c0-.532-.5-.532-.655-.532.328-.516 1.015-.656 1.406-.656.422 0 1 .234 1 1.187 0 .125-.016.734-.297 1.188-.312.5-.672.53-.922.547a4 4 0 0 1-.422.03c-.078.016-.156.016-.156.126 0 .125.078.125.25.125h.469c.86 0 1.25.703 1.25 1.734C3.719-.375 3-.062 2.53-.062c-.453 0-1.234-.172-1.61-.797.376.046.688-.188.688-.578a.57.57 0 0 0-.578-.594c-.25 0-.593.156-.593.61 0 .952.984 1.655 2.125 1.655 1.28 0 2.234-.953 2.234-2.03 0-.86-.656-1.673-1.75-1.907m0 0"/><path id="e" d="M4.828-3.36c0-.843-.047-1.687-.422-2.452C3.922-6.828 3.063-7 2.625-7 2-7 1.235-6.719.797-5.75c-.328.734-.39 1.547-.39 2.39 0 .782.046 1.735.468 2.532A1.94 1.94 0 0 0 2.609.234c.579 0 1.375-.218 1.829-1.218.343-.735.39-1.547.39-2.375M2.61 0c-.406 0-1.03-.266-1.218-1.266-.11-.64-.11-1.593-.11-2.218 0-.672 0-1.36.078-1.938.204-1.25 1-1.344 1.25-1.344.36 0 1.047.188 1.25 1.235.094.578.094 1.39.094 2.047 0 .78 0 1.5-.11 2.172C3.689-.312 3.094 0 2.61 0m0 0"/><path id="f" d="M3.531-1.734c0-.844-.672-1.5-1.5-1.5s-1.5.672-1.5 1.484a1.5 1.5 0 0 0 1.5 1.5c.844 0 1.5-.672 1.5-1.484m-1.5 1.14A1.157 1.157 0 1 1 3.187-1.75c0 .656-.515 1.156-1.156 1.156m0 0"/></defs><path fill="none" stroke="#007f7f" stroke-miterlimit="10" stroke-width=".797" d="M.398 156.305h270.04V.398Zm0 0"/><use xlink:href="#a" x="106.696" y="166.663" fill="#007f7f"/><g fill="#007f7f"><use xlink:href="#b" x="237.9" y="170.621"/><use xlink:href="#a" x="245.52" y="170.621"/></g><use xlink:href="#c" x="274.337" y="94.297" fill="#007f7f"/><g fill="#007f7f"><use xlink:href="#b" x="274.337" y="18.322"/><use xlink:href="#c" x="281.957" y="18.322"/></g><path fill="none" stroke="#007f7f" stroke-miterlimit="10" stroke-width=".797" d="M221.34 156.305V28.746"/><use xlink:href="#c" x="225.238" y="94.297" fill="#007f7f"/><path fill="none" stroke="#007f7f" stroke-miterlimit="10" stroke-width=".797" d="M221.34 28.746h49.098"/><path fill="none" stroke="#007f7f" stroke-dasharray="2.98883 2.98883" stroke-miterlimit="10" stroke-width=".797" d="M57.09 155.598c0-9.243-2.621-19.02-7.242-27.024"/><path fill="none" stroke="#007f7f" stroke-linecap="round" stroke-linejoin="round" stroke-miterlimit="10" stroke-width=".638" d="M59.164 154.043c-.777.133-1.941 1.555-2.074 1.945-.13-.39-1.293-1.812-2.07-1.945"/><path fill="none" stroke="#007f7f" stroke-linecap="round" stroke-linejoin="round" stroke-miterlimit="10" stroke-width=".63798724" d="M48.832 130.953c.61-.5.906-2.316.824-2.719.305.274 2.028.926 2.766.649"/><g fill="#007f7f"><use xlink:href="#d" x="58.571" y="142.227"/><use xlink:href="#e" x="63.821" y="142.227"/></g><use xlink:href="#f" x="69.072" y="138.417" fill="#007f7f"/></svg>