<svg xmlns="http://www.w3.org/2000/svg" xmlns:xlink="http://www.w3.org/1999/xlink" width="326.907" height="312.067" viewBox="0 0 245.18 234.05"><defs><path id="a" d="M7.11-6.125c-.485.094-.657.453-.657.734 0 .36.281.485.484.485.454 0 .766-.39.766-.797 0-.625-.719-.906-1.344-.906-.921 0-1.421.89-1.562 1.172C4.453-6.562 3.53-6.61 3.25-6.61 1.719-6.61.922-4.656.922-4.312c0 .046.047.125.156.125.125 0 .156-.094.188-.141C1.766-6 2.78-6.312 3.203-6.312c.688 0 .813.625.813.984 0 .328-.079.672-.266 1.39l-.516 2.063c-.218.906-.656 1.719-1.453 1.719-.078 0-.453 0-.765-.188a.79.79 0 0 0 .672-.734c0-.297-.235-.484-.516-.484-.36 0-.75.312-.75.796 0 .625.703.922 1.344.922C2.484.156 3-.422 3.313-1.03c.25.875 1 1.187 1.546 1.187 1.532 0 2.344-1.968 2.344-2.297 0-.078-.062-.14-.156-.14-.125 0-.14.078-.188.203C6.453-.766 5.58-.156 4.906-.156c-.531 0-.812-.39-.812-1 0-.328.062-.563.297-1.563l.53-2.031c.22-.906.735-1.562 1.423-1.562.031 0 .453 0 .765.187m0 0"/><path id="b" d="M7.547-10.031c.016-.063.047-.156.047-.235 0-.14-.157-.14-.188-.14-.015 0-.75.062-.828.078-.25.015-.469.031-.75.047-.375.031-.469.047-.469.328 0 .14.11.14.329.14.734 0 .75.141.75.282 0 .094-.032.219-.047.265l-.922 3.641c-.157-.39-.563-.984-1.344-.984C2.438-6.61.594-4.422.594-2.203c0 1.484.875 2.36 1.89 2.36.829 0 1.532-.657 1.954-1.141.156.875.859 1.14 1.312 1.14.438 0 .813-.281 1.078-.812.234-.516.453-1.422.453-1.485 0-.078-.062-.14-.156-.14-.14 0-.156.078-.203.297-.234.89-.516 1.828-1.125 1.828-.438 0-.469-.39-.469-.688 0-.062 0-.375.11-.797Zm-3.031 8.25c-.079.25-.079.281-.282.562-.328.422-1 1.063-1.703 1.063-.61 0-.953-.547-.953-1.438 0-.828.469-2.5.75-3.125.5-1.062 1.219-1.593 1.797-1.593.984 0 1.188 1.234 1.188 1.343 0 .016-.047.219-.063.25Zm0 0"/></defs><path fill="none" stroke="#007f7f" stroke-miterlimit="10" stroke-width=".797" d="M23.375 216.234h198.43V17.81H23.375Zm0 0"/><use xlink:href="#a" x="104.243" y="226.592" fill="#007f7f"/><g fill="#007f7f"><use xlink:href="#b" x="199.641" y="230.55"/><use xlink:href="#a" x="207.261" y="230.55"/></g><use xlink:href="#a" x="225.702" y="134.424" fill="#007f7f"/><g fill="#007f7f"><use xlink:href="#b" x="225.702" y="37.189"/><use xlink:href="#a" x="233.322" y="37.189"/></g><g fill="#007f7f"><use xlink:href="#b" x="199.641" y="13.909"/><use xlink:href="#a" x="207.261" y="13.909"/></g><use xlink:href="#a" x="104.243" y="13.909" fill="#007f7f"/><g fill="#007f7f"><use xlink:href="#b" x="3.499" y="37.189"/><use xlink:href="#a" x="11.119" y="37.189"/></g><use xlink:href="#a" x="11.131" y="134.424" fill="#007f7f"/><path fill="none" stroke="#007f7f" stroke-miterlimit="10" stroke-width=".797" d="M193.457 216.234V17.81M23.375 46.152h198.43"/></svg>