<svg xmlns="http://www.w3.org/2000/svg" xmlns:xlink="http://www.w3.org/1999/xlink" width="287.827" height="261.627" viewBox="0 0 215.87 196.22"><defs><path id="b" d="M7.11-6.125c-.485.094-.657.453-.657.734 0 .36.281.485.484.485.454 0 .766-.39.766-.797 0-.625-.719-.906-1.344-.906-.921 0-1.421.89-1.562 1.172C4.453-6.562 3.53-6.61 3.25-6.61 1.719-6.61.922-4.656.922-4.312c0 .046.047.125.156.125.125 0 .156-.094.188-.141C1.766-6 2.78-6.312 3.203-6.312c.688 0 .813.625.813.984 0 .328-.079.672-.266 1.39l-.516 2.063c-.218.906-.656 1.719-1.453 1.719-.078 0-.453 0-.765-.188a.79.79 0 0 0 .672-.734c0-.297-.235-.484-.516-.484-.36 0-.75.312-.75.796 0 .625.703.922 1.344.922C2.484.156 3-.422 3.313-1.03c.25.875 1 1.187 1.546 1.187 1.532 0 2.344-1.968 2.344-2.297 0-.078-.062-.14-.156-.14-.125 0-.14.078-.188.203C6.453-.766 5.58-.156 4.906-.156c-.531 0-.812-.39-.812-1 0-.328.062-.563.297-1.563l.53-2.031c.22-.906.735-1.562 1.423-1.562.031 0 .453 0 .765.187m0 0"/><path id="d" d="M7.547-10.031c.016-.063.047-.156.047-.235 0-.14-.157-.14-.188-.14-.015 0-.75.062-.828.078-.25.015-.469.031-.75.047-.375.031-.469.047-.469.328 0 .14.11.14.329.14.734 0 .75.141.75.282 0 .094-.032.219-.047.265l-.922 3.641c-.157-.39-.563-.984-1.344-.984C2.438-6.61.594-4.422.594-2.203c0 1.484.875 2.36 1.89 2.36.829 0 1.532-.657 1.954-1.141.156.875.859 1.14 1.312 1.14.438 0 .813-.281 1.078-.812.234-.516.453-1.422.453-1.485 0-.078-.062-.14-.156-.14-.14 0-.156.078-.203.297-.234.89-.516 1.828-1.125 1.828-.438 0-.469-.39-.469-.688 0-.062 0-.375.11-.797Zm-3.031 8.25c-.079.25-.079.281-.282.562-.328.422-1 1.063-1.703 1.063-.61 0-.953-.547-.953-1.438 0-.828.469-2.5.75-3.125.5-1.062 1.219-1.593 1.797-1.593.984 0 1.188 1.234 1.188 1.343 0 .016-.047.219-.063.25Zm0 0"/><path id="c" d="M2.875-3.75a.8.8 0 0 0-.797-.797.797.797 0 0 0 0 1.594.8.8 0 0 0 .797-.797m0 0"/><path id="e" d="M4.875 3.64c0-.046 0-.078-.25-.328-1.5-1.515-2.344-3.984-2.344-7.046 0-2.907.703-5.422 2.438-7.188.156-.14.156-.156.156-.203 0-.094-.078-.125-.14-.125-.188 0-1.423 1.078-2.157 2.547-.765 1.515-1.11 3.125-1.11 4.969 0 1.328.22 3.125.985 4.718.89 1.813 2.125 2.782 2.281 2.782.063 0 .141-.032.141-.125m0 0"/><path id="f" d="M4.234-3.734c0-1.141-.156-3-1-4.735C2.36-10.28 1.125-11.25.954-11.25c-.048 0-.126.031-.126.125 0 .047 0 .063.25.328 1.5 1.516 2.344 3.985 2.344 7.047 0 2.906-.703 5.422-2.453 7.188-.14.124-.14.156-.14.203 0 .093.077.125.124.125.203 0 1.438-1.078 2.172-2.547.766-1.531 1.11-3.157 1.11-4.953m0 0"/><path id="g" d="M5.281-2.016h-.265c-.032.204-.125.86-.25 1.063C4.687-.86 4-.86 3.64-.86H1.42c.313-.266 1.048-1.032 1.36-1.328 1.828-1.672 2.5-2.297 2.5-3.485 0-1.39-1.093-2.312-2.484-2.312-1.39 0-2.203 1.187-2.203 2.218 0 .625.515.625.562.625.25 0 .563-.187.563-.578a.54.54 0 0 0-.563-.562c-.11 0-.14 0-.172.015.235-.812.875-1.359 1.657-1.359 1.015 0 1.64.844 1.64 1.953 0 1.016-.578 1.906-1.265 2.672L.594-.281V0h4.375Zm0 0"/><path id="i" d="M3.5-3.172c.063-.265.313-1.234 1.047-1.234.047 0 .297 0 .531.125-.297.062-.516.328-.516.578 0 .172.125.36.407.36a.58.58 0 0 0 .562-.61c0-.547-.625-.688-.968-.688-.61 0-.985.563-1.11.797-.265-.687-.828-.797-1.125-.797C1.234-4.64.625-3.28.625-3.03c0 .11.11.11.125.11.094 0 .125-.017.14-.11.36-1.11 1.047-1.375 1.407-1.375.203 0 .562.093.562.703 0 .328-.171 1.031-.562 2.5-.172.64-.531 1.094-1 1.094C1.234-.11 1-.11.78-.25a.585.585 0 0 0 .485-.562c0-.297-.22-.375-.391-.375-.312 0-.578.28-.578.609 0 .484.531.687 1 .687.687 0 1.062-.734 1.094-.796.125.39.5.796 1.14.796C4.61.11 5.203-1.234 5.203-1.5c0-.11-.094-.11-.125-.11-.094 0-.11.048-.125.126C4.593-.375 3.891-.11 3.547-.11c-.406 0-.578-.344-.578-.703 0-.235.062-.454.187-.922Zm0 0"/><path id="j" d="M3.516-1.266H3.28c-.015.157-.094.563-.187.625-.047.047-.578.047-.688.047H1.125c.734-.64.984-.843 1.39-1.172.516-.406 1-.843 1-1.5 0-.843-.734-1.359-1.624-1.359-.86 0-1.453.61-1.453 1.25 0 .344.296.39.375.39.156 0 .359-.124.359-.374 0-.125-.047-.375-.406-.375.218-.485.687-.641 1.015-.641.703 0 1.063.547 1.063 1.11 0 .609-.438 1.078-.656 1.328L.516-.266C.437-.203.437-.187.437 0h2.876Zm0 0"/><clipPath id="a"><path d="M0 22h174v174.219H0Zm0 0"/></clipPath><clipPath id="h"><path d="M170 22h1v174.219h-1Zm0 0"/></clipPath></defs><g clip-path="url(#a)"><path fill="none" stroke="#007f7f" stroke-miterlimit="10" stroke-width=".797" d="M.398 195.82h172.915V22.906H.398Zm0 0"/></g><use xlink:href="#b" x="177.212" y="115.989" fill="#007f7f"/><use xlink:href="#c" x="188.892" y="115.989" fill="#007f7f"/><g fill="#007f7f"><use xlink:href="#d" x="196.392" y="115.989"/><use xlink:href="#b" x="204.012" y="115.989"/></g><use xlink:href="#e" x="177.212" y="16.675" fill="#007f7f"/><g fill="#007f7f"><use xlink:href="#d" x="182.924" y="16.675"/><use xlink:href="#b" x="190.544" y="16.675"/></g><use xlink:href="#f" x="198.902" y="16.675" fill="#007f7f"/><use xlink:href="#g" x="204.614" y="11.232" fill="#007f7f"/><use xlink:href="#b" x="67.859" y="19.007" fill="#007f7f"/><use xlink:href="#c" x="79.539" y="19.007" fill="#007f7f"/><g fill="#007f7f"><use xlink:href="#d" x="87.039" y="19.007"/><use xlink:href="#b" x="94.659" y="19.007"/></g><g clip-path="url(#h)"><path fill="none" stroke="#007f7f" stroke-miterlimit="10" stroke-width=".797" d="M170.48 195.82V22.906"/></g><path fill="none" stroke="#007f7f" stroke-miterlimit="10" stroke-width=".797" d="M.398 25.738h172.915"/><use xlink:href="#i" x="80.203" y="114.933" fill="#007f7f"/><use xlink:href="#j" x="86.205" y="111.123" fill="#007f7f"/></svg>