<svg xmlns="http://www.w3.org/2000/svg" xmlns:xlink="http://www.w3.org/1999/xlink" width="339.493" height="473.96" viewBox="0 0 254.62 355.47"><defs><path id="a" d="M10.89-6.562c0-2.485-1.624-4-3.718-4-3.219 0-6.453 3.453-6.453 6.921C.719-1.297 2.28.313 4.453.313c3.156 0 6.438-3.282 6.438-6.875M4.548-.032c-1.234 0-2.531-.905-2.531-3.234 0-1.375.484-3.609 1.718-5.109 1.094-1.312 2.36-1.86 3.36-1.86 1.328 0 2.593.97 2.593 3.126 0 1.328-.562 3.422-1.578 4.843C7.016-.734 5.656-.03 4.547-.03m0 0"/><path id="b" d="M2.547-1.672C2.03-.782 1.516-.484.797-.437c-.172.015-.281.015-.281.28 0 .095.062.157.172.157.265 0 .953-.031 1.218-.031.438 0 .907.031 1.328.031.094 0 .282 0 .282-.281 0-.14-.125-.156-.22-.156-.343-.032-.624-.141-.624-.5 0-.22.094-.375.281-.72l1.14-1.89h3.829c.016.14.016.266.031.39.047.391.219 1.954.219 2.235 0 .453-.766.485-1 .485-.172 0-.328 0-.328.265 0 .172.125.172.218.172.25 0 .563-.031.813-.031h.86c.906 0 1.578.031 1.578.031.109 0 .28 0 .28-.281 0-.156-.14-.156-.359-.156-.828 0-.843-.125-.89-.579l-.906-9.359c-.032-.312-.094-.328-.266-.328-.14 0-.235.015-.375.25Zm1.797-2.297 3.015-5.047.516 5.047Zm0 0"/><path id="c" d="M5.484-9.219c.141-.562.204-.594.782-.594h1.953c1.703 0 1.703 1.438 1.703 1.579 0 1.218-1.219 2.765-3.203 2.765H4.562Zm2.547 3.86c1.625-.297 3.11-1.438 3.11-2.813 0-1.172-1.032-2.078-2.72-2.078H3.595c-.281 0-.406 0-.406.297 0 .14.124.14.359.14.906 0 .906.126.906.282 0 .031 0 .125-.062.344L2.375-1.11c-.14.53-.172.672-1.219.672-.281 0-.437 0-.437.265 0 .172.094.172.39.172H6.25c2.297 0 4.063-1.734 4.063-3.25 0-1.234-1.079-1.984-2.282-2.11M5.891-.437H3.875c-.219 0-.25 0-.328-.016C3.375-.47 3.359-.5 3.359-.61c0-.11.032-.203.063-.328l1.047-4.235h2.828c1.766 0 1.766 1.64 1.766 1.766C9.063-1.97 7.75-.437 5.89-.437m0 0"/><path id="f" d="M7.11-6.125c-.485.094-.657.453-.657.734 0 .36.281.485.484.485.454 0 .766-.39.766-.797 0-.625-.719-.906-1.344-.906-.921 0-1.421.89-1.562 1.172C4.453-6.562 3.53-6.61 3.25-6.61 1.719-6.61.922-4.656.922-4.312c0 .046.047.125.156.125.125 0 .156-.094.188-.141C1.766-6 2.78-6.312 3.203-6.312c.688 0 .813.625.813.984 0 .328-.079.672-.266 1.39l-.516 2.063c-.218.906-.656 1.719-1.453 1.719-.078 0-.453 0-.765-.188a.79.79 0 0 0 .672-.734c0-.297-.235-.484-.516-.484-.36 0-.75.312-.75.796 0 .625.703.922 1.344.922C2.484.156 3-.422 3.313-1.03c.25.875 1 1.187 1.546 1.187 1.532 0 2.344-1.968 2.344-2.297 0-.078-.062-.14-.156-.14-.125 0-.14.078-.188.203C6.453-.766 5.58-.156 4.906-.156c-.531 0-.812-.39-.812-1 0-.328.062-.563.297-1.563l.53-2.031c.22-.906.735-1.562 1.423-1.562.031 0 .453 0 .765.187m0 0"/><path id="g" d="M3.938 1.688c-.391.562-.985 1.078-1.72 1.078-.171 0-.905-.032-1.124-.72a.6.6 0 0 0 .156.017c.438 0 .75-.391.75-.75 0-.344-.297-.454-.516-.454-.234 0-.765.172-.765.907 0 .765.64 1.297 1.5 1.297 1.5 0 3.015-1.376 3.437-3.047l1.469-5.844c.016-.078.047-.172.047-.266 0-.218-.188-.375-.406-.375-.141 0-.453.063-.578.516l-1.11 4.406c-.062.266-.062.297-.187.469-.297.422-.797.922-1.516.922-.844 0-.922-.813-.922-1.219 0-.86.406-2.016.813-3.094.172-.437.265-.64.265-.953 0-.625-.453-1.187-1.187-1.187C.954-6.61.406-4.437.406-4.312c0 .046.063.125.156.125.141 0 .157-.063.22-.266.359-1.266.921-1.86 1.515-1.86.14 0 .39 0 .39.5 0 .375-.171.813-.39 1.391-.735 1.969-.735 2.453-.735 2.813C1.563-.187 2.579.156 3.329.156c.438 0 .985-.14 1.5-.703l.016.016c-.219.89-.375 1.469-.907 2.219m0 0"/><clipPath id="d"><path d="M10 14h244.621v333H10Zm0 0"/></clipPath><clipPath id="e"><path d="M10 314h233v41.469H10Zm0 0"/></clipPath></defs><path fill="none" stroke="#007f7f" stroke-miterlimit="10" stroke-width=".797" d="M27.254 329.46H225.68L27.254 17.646Zm0 0"/><use xlink:href="#a" x="11.721" y="343.608" fill="#007f7f"/><use xlink:href="#b" x="220.174" y="343.608" fill="#007f7f"/><use xlink:href="#c" x="21.295" y="13.747" fill="#007f7f"/><g clip-path="url(#d)"><path fill="none" stroke="#ff7f00" stroke-miterlimit="10" stroke-width="1.196" d="M225.68 329.46h28.347L27.254 31.82"/></g><g clip-path="url(#e)"><path fill="none" stroke="#007f7f" stroke-miterlimit="10" stroke-width="1.196" d="M225.68 331.453c-1.496 2.988-4.98 4.98-9.961 4.98h-79.29c-4.984 0-8.468 1.993-9.964 4.981-1.492-2.988-4.98-4.98-9.961-4.98h-79.29c-4.98 0-8.468-1.993-9.96-4.98"/></g><use xlink:href="#f" x="122.293" y="351.971" fill="#007f7f"/><path fill="none" stroke="#007f7f" stroke-miterlimit="10" stroke-width="1.196" d="M25.258 329.46c-2.988-1.495-4.98-4.98-4.98-9.964v-135.98c0-4.98-1.993-8.47-4.981-9.965 2.988-1.492 4.98-4.98 4.98-9.961V27.61c0-4.985 1.993-8.47 4.98-9.965"/><use xlink:href="#g" x="3.5" y="175.323" fill="#007f7f"/></svg>