<svg xmlns="http://www.w3.org/2000/svg" xmlns:xlink="http://www.w3.org/1999/xlink" width="248.293" height="245.773" viewBox="0 0 186.22 184.33"><defs><clipPath id="a"><path d="M0 13h171v171.328H0Zm0 0"/></clipPath><path id="b" d="M7.11-6.125c-.485.094-.657.453-.657.734 0 .36.281.485.484.485.454 0 .766-.39.766-.797 0-.625-.719-.906-1.344-.906-.921 0-1.421.89-1.562 1.172C4.453-6.562 3.53-6.61 3.25-6.61 1.719-6.61.922-4.656.922-4.312c0 .046.047.125.156.125.125 0 .156-.094.188-.141C1.766-6 2.78-6.312 3.203-6.312c.688 0 .813.625.813.984 0 .328-.079.672-.266 1.39l-.516 2.063c-.218.906-.656 1.719-1.453 1.719-.078 0-.453 0-.765-.188a.79.79 0 0 0 .672-.734c0-.297-.235-.484-.516-.484-.36 0-.75.312-.75.796 0 .625.703.922 1.344.922C2.484.156 3-.422 3.313-1.03c.25.875 1 1.187 1.546 1.187 1.532 0 2.344-1.968 2.344-2.297 0-.078-.062-.14-.156-.14-.125 0-.14.078-.188.203C6.453-.766 5.58-.156 4.906-.156c-.531 0-.812-.39-.812-1 0-.328.062-.563.297-1.563l.53-2.031c.22-.906.735-1.562 1.423-1.562.031 0 .453 0 .765.187m0 0"/></defs><g clip-path="url(#a)"><path fill="none" stroke="#007f7f" stroke-miterlimit="10" stroke-width=".797" d="M.398 183.934H170.48V13.852H.398Zm0 0"/></g><use xlink:href="#b" x="174.377" y="102.121" fill="#007f7f"/><use xlink:href="#b" x="81.265" y="9.953" fill="#007f7f"/></svg>