<svg xmlns="http://www.w3.org/2000/svg" xmlns:xlink="http://www.w3.org/1999/xlink" width="324.093" height="309.907" viewBox="0 0 243.07 232.43"><defs><path id="a" d="M6.797-5.86c-.453.094-.625.438-.625.704 0 .343.266.468.469.468.437 0 .734-.375.734-.765 0-.594-.687-.875-1.297-.875-.875 0-1.36.86-1.484 1.14-.328-1.078-1.219-1.14-1.485-1.14-1.453 0-2.234 1.875-2.234 2.203 0 .047.063.125.156.125.11 0 .14-.094.172-.14.484-1.594 1.453-1.891 1.86-1.891.656 0 .78.593.78.937 0 .313-.077.64-.265 1.328l-.484 1.97c-.203.859-.625 1.655-1.39 1.655-.063 0-.423 0-.735-.187.515-.11.64-.531.64-.703 0-.282-.218-.453-.484-.453a.744.744 0 0 0-.719.75c0 .609.672.875 1.281.875.688 0 1.188-.547 1.485-1.125C3.406-.141 4.109.14 4.64.14c1.468 0 2.25-1.875 2.25-2.188 0-.078-.063-.14-.157-.14-.125 0-.14.078-.171.187C6.172-.734 5.328-.14 4.688-.14c-.5 0-.766-.376-.766-.97 0-.312.047-.546.281-1.484l.5-1.953c.219-.86.703-1.484 1.36-1.484.03 0 .437 0 .734.172m0 0"/><path id="b" d="M7.219-9.594c.015-.062.047-.14.047-.219 0-.14-.157-.14-.188-.14 0 0-.703.062-.781.062-.25.016-.453.047-.719.063-.36.031-.453.047-.453.297 0 .156.11.156.313.156.703 0 .718.125.718.266a1 1 0 0 1-.047.25l-.875 3.484c-.156-.375-.546-.953-1.296-.953-1.61 0-3.36 2.094-3.36 4.219 0 1.422.828 2.25 1.797 2.25.797 0 1.469-.61 1.875-1.094C4.39-.093 5.063.14 5.5.14c.422 0 .766-.25 1.031-.766.219-.5.422-1.375.422-1.422 0-.078-.047-.14-.14-.14-.125 0-.141.078-.204.296-.218.844-.484 1.75-1.078 1.75-.406 0-.437-.375-.437-.656 0-.062 0-.36.093-.765Zm-2.907 7.89c-.062.235-.062.266-.265.548-.313.39-.953 1.015-1.625 1.015-.578 0-.922-.53-.922-1.375 0-.796.453-2.406.719-3 .5-1 1.172-1.515 1.719-1.515.953 0 1.14 1.172 1.14 1.281 0 .016-.047.203-.062.234Zm0 0"/></defs><path fill="none" stroke="#007f7f" stroke-miterlimit="10" stroke-width=".797" d="M22.32 215.43h198.43V17H22.32Zm0 0"/><use xlink:href="#a" x="103.37" y="225.324" fill="#007f7f"/><g fill="#007f7f"><use xlink:href="#b" x="198.934" y="229.11"/><use xlink:href="#a" x="206.222" y="229.11"/></g><use xlink:href="#a" x="224.468" y="133.476" fill="#007f7f"/><g fill="#007f7f"><use xlink:href="#b" x="224.468" y="36.155"/><use xlink:href="#a" x="231.756" y="36.155"/></g><g fill="#007f7f"><use xlink:href="#b" x="198.934" y="13.281"/><use xlink:href="#a" x="206.222" y="13.281"/></g><use xlink:href="#a" x="103.37" y="13.281" fill="#007f7f"/><g fill="#007f7f"><use xlink:href="#b" x="3.32" y="36.155"/><use xlink:href="#a" x="10.608" y="36.155"/></g><use xlink:href="#a" x="10.619" y="133.476" fill="#007f7f"/><path fill="none" stroke="#007f7f" stroke-miterlimit="10" stroke-width=".797" d="M192.402 215.43V17M22.32 45.348h198.43"/></svg>