<svg xmlns="http://www.w3.org/2000/svg" xmlns:xlink="http://www.w3.org/1999/xlink" width="285.307" height="258.867" viewBox="0 0 213.98 194.15"><defs><path id="b" d="M6.797-5.86c-.453.094-.625.438-.625.704 0 .343.266.468.469.468.437 0 .734-.375.734-.765 0-.594-.687-.875-1.297-.875-.875 0-1.36.86-1.484 1.14-.328-1.078-1.219-1.14-1.485-1.14-1.453 0-2.234 1.875-2.234 2.203 0 .047.063.125.156.125.11 0 .14-.094.172-.14.484-1.594 1.453-1.891 1.86-1.891.656 0 .78.593.78.937 0 .313-.077.64-.265 1.328l-.484 1.97c-.203.859-.625 1.655-1.39 1.655-.063 0-.423 0-.735-.187.515-.11.64-.531.64-.703 0-.282-.218-.453-.484-.453a.744.744 0 0 0-.719.75c0 .609.672.875 1.281.875.688 0 1.188-.547 1.485-1.125C3.406-.141 4.109.14 4.64.14c1.468 0 2.25-1.875 2.25-2.188 0-.078-.063-.14-.157-.14-.125 0-.14.078-.171.187C6.172-.734 5.328-.14 4.688-.14c-.5 0-.766-.376-.766-.97 0-.312.047-.546.281-1.484l.5-1.953c.219-.86.703-1.484 1.36-1.484.03 0 .437 0 .734.172m0 0"/><path id="d" d="M7.219-9.594c.015-.062.047-.14.047-.219 0-.14-.157-.14-.188-.14 0 0-.703.062-.781.062-.25.016-.453.047-.719.063-.36.031-.453.047-.453.297 0 .156.11.156.313.156.703 0 .718.125.718.266a1 1 0 0 1-.047.25l-.875 3.484c-.156-.375-.546-.953-1.296-.953-1.61 0-3.36 2.094-3.36 4.219 0 1.422.828 2.25 1.797 2.25.797 0 1.469-.61 1.875-1.094C4.39-.093 5.063.14 5.5.14c.422 0 .766-.25 1.031-.766.219-.5.422-1.375.422-1.422 0-.078-.047-.14-.14-.14-.125 0-.141.078-.204.296-.218.844-.484 1.75-1.078 1.75-.406 0-.437-.375-.437-.656 0-.062 0-.36.093-.765Zm-2.907 7.89c-.062.235-.062.266-.265.548-.313.39-.953 1.015-1.625 1.015-.578 0-.922-.53-.922-1.375 0-.796.453-2.406.719-3 .5-1 1.172-1.515 1.719-1.515.953 0 1.14 1.172 1.14 1.281 0 .016-.047.203-.062.234Zm0 0"/><path id="c" d="M2.75-3.578A.764.764 0 0 0 2-4.344a.767.767 0 0 0-.766.766c0 .406.344.75.766.75a.76.76 0 0 0 .75-.75m0 0"/><path id="e" d="M4.656 3.484c0-.046 0-.078-.234-.312-1.438-1.453-2.234-3.813-2.234-6.75 0-2.781.671-5.172 2.328-6.86.14-.14.14-.156.14-.203 0-.093-.062-.109-.125-.109-.187 0-1.36 1.031-2.062 2.438-.735 1.437-1.063 2.984-1.063 4.734 0 1.281.203 2.984.953 4.531.844 1.719 2.016 2.64 2.172 2.64.063 0 .125-.015.125-.109m0 0"/><path id="f" d="M4.047-3.578c0-1.078-.14-2.86-.953-4.531C2.25-9.83 1.078-10.75.922-10.75c-.063 0-.14.016-.14.11 0 .046 0 .062.25.312 1.437 1.453 2.234 3.812 2.234 6.75 0 2.781-.672 5.172-2.328 6.86-.157.124-.157.155-.157.202 0 .094.078.11.14.11.188 0 1.36-1.031 2.063-2.438.735-1.453 1.063-3 1.063-4.734m0 0"/><path id="g" d="m1.266-.766 1.062-1.03c1.547-1.376 2.14-1.907 2.14-2.907 0-1.14-.89-1.938-2.109-1.938A1.843 1.843 0 0 0 .5-4.828c0 .547.5.547.531.547.172 0 .516-.11.516-.532a.513.513 0 0 0-.531-.515c-.079 0-.094 0-.125.016.218-.657.765-1.016 1.343-1.016.907 0 1.329.812 1.329 1.625 0 .797-.485 1.578-1.047 2.203L.609-.375C.5-.265.5-.235.5 0h3.703l.266-1.734h-.235C4.172-1.437 4.11-1 4-.844c-.062.078-.719.078-.937.078Zm0 0"/><path id="i" d="M3.328-3.016c.063-.25.297-1.171.985-1.171.046 0 .296 0 .5.125a.58.58 0 0 0-.47.546c0 .157.11.344.376.344a.546.546 0 0 0 .531-.578c0-.516-.578-.656-.922-.656-.578 0-.922.531-1.047.75-.25-.656-.781-.75-1.078-.75-1.031 0-1.61 1.281-1.61 1.531 0 .11.11.11.126.11.078 0 .11-.032.125-.11.344-1.062 1-1.312 1.344-1.312.187 0 .53.093.53.671 0 .313-.171.97-.53 2.375-.157.61-.516 1.032-.954 1.032-.062 0-.28 0-.5-.125.25-.063.47-.266.47-.547 0-.266-.22-.344-.36-.344-.313 0-.547.25-.547.578 0 .453.484.656.922.656.672 0 1.031-.703 1.047-.75.125.36.484.75 1.078.75 1.031 0 1.594-1.28 1.594-1.53 0-.11-.079-.11-.11-.11-.094 0-.11.047-.14.11-.329 1.077-1 1.312-1.313 1.312-.39 0-.547-.313-.547-.657 0-.218.047-.437.156-.875Zm0 0"/><path id="j" d="M3.516-1.266H3.28c-.015.157-.094.563-.187.625-.047.047-.578.047-.688.047h-1.28c.734-.64.984-.843 1.39-1.172.516-.406 1-.843 1-1.5 0-.843-.734-1.359-1.624-1.359-.86 0-1.453.61-1.453 1.25 0 .344.296.39.375.39a.365.365 0 0 0 .359-.374c0-.125-.047-.375-.406-.375.218-.485.687-.641 1.015-.641.703 0 1.063.547 1.063 1.11 0 .609-.438 1.078-.656 1.328L.516-.266C.437-.203.437-.187.437 0h2.876Zm0 0"/><clipPath id="a"><path d="M0 20h174v174.148H0Zm0 0"/></clipPath><clipPath id="h"><path d="M170 20h1v174.148h-1Zm0 0"/></clipPath></defs><g clip-path="url(#a)"><path fill="none" stroke="#007f7f" stroke-miterlimit="10" stroke-width=".797" d="M.398 193.754h172.915V20.836H.398Zm0 0"/></g><use xlink:href="#b" x="177.033" y="113.693" fill="#007f7f"/><use xlink:href="#c" x="188.204" y="113.693" fill="#007f7f"/><g fill="#007f7f"><use xlink:href="#d" x="195.377" y="113.693"/><use xlink:href="#b" x="202.665" y="113.693"/></g><use xlink:href="#e" x="177.033" y="14.948" fill="#007f7f"/><g fill="#007f7f"><use xlink:href="#d" x="182.496" y="14.948"/><use xlink:href="#b" x="189.784" y="14.948"/></g><use xlink:href="#f" x="197.778" y="14.948" fill="#007f7f"/><use xlink:href="#g" x="203.241" y="9.742" fill="#007f7f"/><use xlink:href="#b" x="68.626" y="17.117" fill="#007f7f"/><use xlink:href="#c" x="79.797" y="17.117" fill="#007f7f"/><g fill="#007f7f"><use xlink:href="#d" x="86.97" y="17.117"/><use xlink:href="#b" x="94.258" y="17.117"/></g><g clip-path="url(#h)"><path fill="none" stroke="#007f7f" stroke-miterlimit="10" stroke-width=".797" d="M170.48 193.754V20.836"/></g><path fill="none" stroke="#007f7f" stroke-miterlimit="10" stroke-width=".797" d="M.398 23.672h172.915"/><use xlink:href="#i" x="80.357" y="112.766" fill="#007f7f"/><use xlink:href="#j" x="86.051" y="109.15" fill="#007f7f"/></svg>