<svg xmlns="http://www.w3.org/2000/svg" xmlns:xlink="http://www.w3.org/1999/xlink" width="389.52" height="231.08" viewBox="0 0 292.14 173.31"><defs><path id="a" d="M6.797-5.86c-.453.094-.625.438-.625.704 0 .343.266.468.469.468.437 0 .734-.375.734-.765 0-.594-.687-.875-1.297-.875-.875 0-1.36.86-1.484 1.14-.328-1.078-1.219-1.14-1.485-1.14-1.453 0-2.234 1.875-2.234 2.203 0 .047.063.125.156.125.11 0 .14-.094.172-.14.484-1.594 1.453-1.891 1.86-1.891.656 0 .78.593.78.937 0 .313-.077.64-.265 1.328l-.484 1.97c-.203.859-.625 1.655-1.39 1.655-.063 0-.423 0-.735-.187.515-.11.64-.531.64-.703 0-.282-.218-.453-.484-.453a.744.744 0 0 0-.719.75c0 .609.672.875 1.281.875.688 0 1.188-.547 1.485-1.125C3.406-.141 4.109.14 4.64.14c1.468 0 2.25-1.875 2.25-2.188 0-.078-.063-.14-.157-.14-.125 0-.14.078-.171.187C6.172-.734 5.328-.14 4.688-.14c-.5 0-.766-.376-.766-.97 0-.312.047-.546.281-1.484l.5-1.953c.219-.86.703-1.484 1.36-1.484.03 0 .437 0 .734.172m0 0"/><path id="b" d="M7.219-9.594c.015-.062.047-.14.047-.219 0-.14-.157-.14-.188-.14 0 0-.703.062-.781.062-.25.016-.453.047-.719.063-.36.031-.453.047-.453.297 0 .156.11.156.313.156.703 0 .718.125.718.266a1 1 0 0 1-.047.25l-.875 3.484c-.156-.375-.546-.953-1.296-.953-1.61 0-3.36 2.094-3.36 4.219 0 1.422.828 2.25 1.797 2.25.797 0 1.469-.61 1.875-1.094C4.39-.093 5.063.14 5.5.14c.422 0 .766-.25 1.031-.766.219-.5.422-1.375.422-1.422 0-.078-.047-.14-.14-.14-.125 0-.141.078-.204.296-.218.844-.484 1.75-1.078 1.75-.406 0-.437-.375-.437-.656 0-.062 0-.36.093-.765Zm-2.907 7.89c-.062.235-.062.266-.265.548-.313.39-.953 1.015-1.625 1.015-.578 0-.922-.53-.922-1.375 0-.796.453-2.406.719-3 .5-1 1.172-1.515 1.719-1.515.953 0 1.14 1.172 1.14 1.281 0 .016-.047.203-.062.234Zm0 0"/><path id="c" d="M3.766 1.61c-.375.546-.938 1.03-1.641 1.03-.172 0-.86-.03-1.078-.687.047.016.11.016.14.016a.723.723 0 0 0 .72-.703c0-.328-.266-.453-.485-.453-.234 0-.734.171-.734.875 0 .734.625 1.234 1.437 1.234C3.563 2.922 5 1.609 5.406.016l1.407-5.594c.015-.078.046-.156.046-.25 0-.203-.171-.36-.39-.36-.125 0-.438.063-.547.5L4.859-1.484c-.062.265-.062.297-.187.453-.281.406-.75.89-1.438.89-.812 0-.875-.796-.875-1.171 0-.829.375-1.922.766-2.97.156-.405.25-.609.25-.89 0-.61-.437-1.156-1.14-1.156C.921-6.328.39-4.25.39-4.125c0 .047.046.125.156.125.125 0 .14-.062.203-.266.344-1.203.89-1.765 1.438-1.765.14 0 .374 0 .374.468 0 .375-.156.782-.374 1.329-.704 1.875-.704 2.359-.704 2.703C1.484-.171 2.47.14 3.188.14c.406 0 .921-.125 1.437-.657l.016.016c-.22.844-.36 1.406-.875 2.11m0 0"/><path id="d" d="M2.89-3.516c.813-.265 1.391-.953 1.391-1.75 0-.812-.875-1.375-1.828-1.375-1 0-1.765.594-1.765 1.36 0 .328.218.515.515.515s.5-.218.5-.515c0-.485-.469-.485-.61-.485.298-.5.954-.625 1.313-.625.422 0 .969.22.969 1.11 0 .125-.031.703-.281 1.14-.297.485-.64.516-.89.516a3 3 0 0 1-.392.031c-.078.016-.14.031-.14.125 0 .11.062.11.234.11h.438c.812 0 1.187.672 1.187 1.656 0 1.36-.687 1.64-1.125 1.64S1.22-.233.875-.812c.344.047.656-.171.656-.546a.537.537 0 0 0-.547-.563c-.25 0-.562.14-.562.578C.422-.437 1.344.22 2.437.22c1.22 0 2.126-.906 2.126-1.922 0-.813-.641-1.594-1.672-1.813m0 0"/><path id="e" d="M4.578-3.187c0-.797-.047-1.594-.39-2.329C3.734-6.484 2.906-6.64 2.5-6.64c-.61 0-1.328.266-1.75 1.188-.312.687-.36 1.469-.36 2.266 0 .75.032 1.64.454 2.406a1.83 1.83 0 0 0 1.64 1c.532 0 1.297-.203 1.735-1.156.312-.688.36-1.47.36-2.25M2.484 0c-.39 0-.984-.25-1.156-1.203-.11-.594-.11-1.516-.11-2.11 0-.64 0-1.296.079-1.828.187-1.187.937-1.28 1.187-1.28.329 0 .985.187 1.172 1.171.11.563.11 1.313.11 1.938 0 .75 0 1.421-.11 2.062C3.5-.297 2.937 0 2.484 0m0 0"/><path id="f" d="M3.531-1.734c0-.844-.672-1.5-1.5-1.5s-1.5.672-1.5 1.484a1.5 1.5 0 0 0 1.5 1.5c.844 0 1.5-.672 1.5-1.484m-1.5 1.14A1.157 1.157 0 1 1 3.187-1.75c0 .656-.515 1.156-1.156 1.156m0 0"/></defs><path fill="none" stroke="#007f7f" stroke-miterlimit="10" stroke-width=".797" d="M.398 156.309h270.04V.402Zm0 0"/><use xlink:href="#a" x="106.878" y="166.204" fill="#007f7f"/><g fill="#007f7f"><use xlink:href="#b" x="238.248" y="169.99"/><use xlink:href="#a" x="245.536" y="169.99"/></g><use xlink:href="#c" x="274.157" y="94.221" fill="#007f7f"/><g fill="#007f7f"><use xlink:href="#b" x="274.157" y="18.161"/><use xlink:href="#c" x="281.445" y="18.161"/></g><path fill="none" stroke="#007f7f" stroke-miterlimit="10" stroke-width=".797" d="M221.34 156.309V28.746"/><use xlink:href="#c" x="225.059" y="94.221" fill="#007f7f"/><path fill="none" stroke="#007f7f" stroke-miterlimit="10" stroke-width=".797" d="M221.34 28.746h49.098"/><path fill="none" stroke="#007f7f" stroke-dasharray="2.98883 2.98883" stroke-miterlimit="10" stroke-width=".797" d="M57.09 155.602c0-9.243-2.621-19.024-7.242-27.028"/><path fill="none" stroke="#007f7f" stroke-linecap="round" stroke-linejoin="round" stroke-miterlimit="10" stroke-width=".638" d="M59.164 154.047c-.777.129-1.941 1.555-2.074 1.941-.13-.386-1.293-1.812-2.07-1.941m-6.188-23.09c.61-.5.906-2.316.824-2.719.305.274 2.028.922 2.766.645"/><g fill="#007f7f"><use xlink:href="#d" x="58.84" y="142.131"/><use xlink:href="#e" x="63.821" y="142.131"/></g><use xlink:href="#f" x="68.803" y="138.516" fill="#007f7f"/></svg>