<svg xmlns="http://www.w3.org/2000/svg" xmlns:xlink="http://www.w3.org/1999/xlink" width="319.227" height="364.173" viewBox="0 0 239.42 273.13"><defs><path id="b" d="M6.922-2.422c.172 0 .36 0 .36-.203s-.188-.203-.36-.203H1.234c-.171 0-.359 0-.359.203s.188.203.36.203Zm0 0"/><path id="c" d="M3.047-3.703c.86-.281 1.469-1.016 1.469-1.844C4.516-6.407 3.594-7 2.578-7c-1.062 0-1.86.64-1.86 1.438 0 .343.235.546.548.546a.517.517 0 0 0 .53-.53c0-.532-.5-.532-.655-.532.328-.516 1.015-.656 1.406-.656.422 0 1 .234 1 1.187 0 .125-.016.734-.297 1.188-.312.5-.672.53-.922.547a4 4 0 0 1-.422.03c-.078.016-.156.016-.156.126 0 .125.078.125.25.125h.469c.86 0 1.25.703 1.25 1.734C3.719-.375 3-.062 2.53-.062c-.453 0-1.234-.172-1.61-.797.376.046.688-.188.688-.578a.57.57 0 0 0-.578-.594c-.25 0-.593.156-.593.61 0 .952.984 1.655 2.125 1.655 1.28 0 2.234-.953 2.234-2.03 0-.86-.656-1.673-1.75-1.907m0 0"/><path id="d" d="m1.328-.812 1.125-1.079C4.078-3.344 4.72-3.906 4.72-4.953 4.719-6.156 3.766-7 2.484-7A1.933 1.933 0 0 0 .531-5.094c0 .594.516.594.547.594.188 0 .547-.125.547-.562a.533.533 0 0 0-.547-.547c-.094 0-.11 0-.14.015.234-.687.812-1.078 1.421-1.078.954 0 1.407.86 1.407 1.719 0 .844-.532 1.672-1.11 2.312L.641-.39C.53-.266.53-.25.53 0h3.89l.298-1.828h-.266c-.047.312-.125.781-.234.937-.078.079-.766.079-1 .079Zm0 0"/><path id="e" d="M3.094-6.719c0-.25 0-.281-.25-.281-.656.672-1.578.672-1.906.672V-6c.203 0 .828 0 1.375-.266v5.438c0 .375-.032.5-.985.5H1V0c.36-.031 1.281-.031 1.703-.031s1.328 0 1.703.031v-.328h-.343c-.938 0-.97-.11-.97-.5Zm0 0"/><path id="f" d="M3.094-1.734v.922c0 .375-.031.484-.813.484h-.219V0c.438-.031.985-.031 1.422-.031.438 0 1 0 1.422.031v-.328h-.218c-.766 0-.797-.11-.797-.484v-.922h1.062v-.328H3.891v-4.766c0-.219 0-.281-.157-.281-.093 0-.14 0-.218.125L.296-2.062v.328Zm.062-.328H.594L3.156-5.97Zm0 0"/><path id="g" d="M4.719-2.11c0-1.25-.86-2.296-2-2.296-.5 0-.953.172-1.328.531v-2.047c.203.063.547.14.89.14 1.281 0 2.031-.952 2.031-1.093 0-.062-.03-.125-.109-.125-.016 0-.031 0-.094.031-.203.11-.718.313-1.421.313-.422 0-.907-.078-1.391-.297-.094-.031-.11-.031-.125-.031-.11 0-.11.078-.11.25v3.109c0 .188 0 .281.141.281.078 0 .094-.031.14-.094.11-.171.5-.734 1.36-.734.547 0 .797.469.89.672.173.375.188.797.188 1.313 0 .374 0 1-.25 1.437-.25.406-.64.688-1.125.688-.765 0-1.36-.563-1.547-1.172.032 0 .063.015.188.015.344 0 .516-.265.516-.515s-.172-.516-.516-.516c-.156 0-.516.078-.516.563 0 .906.719 1.921 1.89 1.921C3.642.234 4.72-.78 4.72-2.109m0 0"/><path id="h" d="M4.828-3.36c0-.843-.047-1.687-.422-2.452C3.922-6.828 3.063-7 2.625-7 2-7 1.235-6.719.797-5.75c-.328.734-.39 1.547-.39 2.39 0 .782.046 1.735.468 2.532A1.94 1.94 0 0 0 2.609.234c.579 0 1.375-.218 1.829-1.218.343-.735.39-1.547.39-2.375M2.61 0c-.406 0-1.03-.266-1.218-1.266-.11-.64-.11-1.593-.11-2.218 0-.672 0-1.36.078-1.938.204-1.25 1-1.344 1.25-1.344.36 0 1.047.188 1.25 1.235.094.578.094 1.39.094 2.047 0 .78 0 1.5-.11 2.172C3.689-.312 3.094 0 2.61 0m0 0"/><path id="s" d="M7.219-3.437c.156 0 .36 0 .36-.204 0-.218-.204-.218-.36-.218H.938c-.157 0-.344 0-.344.218 0 .204.187.204.344.204Zm0 2.046c.156 0 .36 0 .36-.218 0-.203-.204-.203-.36-.203H.938c-.157 0-.344 0-.344.203 0 .218.187.218.344.218Zm0 0"/><path id="j" d="M3.5-3.172c.063-.265.313-1.234 1.047-1.234.047 0 .297 0 .531.125-.297.062-.516.328-.516.578 0 .172.125.36.407.36a.58.58 0 0 0 .562-.61c0-.547-.625-.688-.968-.688-.61 0-.985.563-1.11.797-.265-.687-.828-.797-1.125-.797C1.234-4.64.625-3.28.625-3.03c0 .11.11.11.125.11.094 0 .125-.017.14-.11.36-1.11 1.047-1.375 1.407-1.375.203 0 .562.093.562.703 0 .328-.171 1.031-.562 2.5-.172.64-.531 1.094-1 1.094C1.234-.11 1-.11.78-.25a.585.585 0 0 0 .485-.562c0-.297-.22-.375-.391-.375-.312 0-.578.28-.578.609 0 .484.531.687 1 .687.687 0 1.062-.734 1.094-.796.125.39.5.796 1.14.796C4.61.11 5.203-1.234 5.203-1.5c0-.11-.094-.11-.125-.11-.094 0-.11.048-.125.126C4.593-.375 3.891-.11 3.547-.11c-.406 0-.578-.344-.578-.703 0-.235.062-.454.187-.922Zm0 0"/><path id="k" d="M5.11-4c.03-.14.03-.172.03-.234 0-.203-.14-.297-.296-.297a.46.46 0 0 0-.375.218l-.14.579c-.079.265-.157.547-.22.843l-.468 1.875c-.047.172-.485.907-1.188.907-.531 0-.64-.47-.64-.86 0-.484.171-1.125.53-2.062.173-.422.204-.531.204-.75 0-.469-.328-.86-.86-.86-1 0-1.39 1.516-1.39 1.61 0 .11.11.11.14.11.094 0 .11-.017.157-.188.281-.985.703-1.297 1.062-1.297.094 0 .266 0 .266.328 0 .266-.11.547-.172.734-.422 1.125-.61 1.719-.61 2.203 0 .938.657 1.25 1.282 1.25.406 0 .765-.171 1.047-.468-.125.547-.25 1.062-.672 1.625-.281.343-.672.656-1.156.656-.157 0-.625-.031-.797-.438.172 0 .297 0 .453-.125A.61.61 0 0 0 1.5.922c0-.328-.281-.36-.39-.36C.874.563.53.72.53 1.235c0 .532.453.922 1.11.922 1.078 0 2.156-.953 2.453-2.14Zm0 0"/><path id="l" d="M.875-8.36h8.75V.845h-.781v-8.485H1.64V.844H.875Zm.453 8.063h7.969v.703H1.328Zm2.61-2.625.343-.484q.406.08.875.219.47.129.89.28.422.142.72.282l-.328.531a10 10 0 0 0-.72-.297 8 8 0 0 0-.89-.296q-.469-.14-.89-.235m.406-4.515.672.234q-.3.468-.703.937a9 9 0 0 1-.86.844c-.293.25-.586.477-.875.672q-.065-.062-.172-.156a2 2 0 0 0-.203-.172 2 2 0 0 0-.187-.14q.669-.405 1.297-.985.638-.576 1.03-1.234m2.812.843h.14l.11-.031.453.266q-.392.644-1.03 1.187-.646.549-1.407.969-.768.409-1.594.719c-.555.199-1.094.359-1.625.484q-.048-.092-.11-.219a1.1 1.1 0 0 0-.124-.234 1.2 1.2 0 0 0-.14-.188q.78-.153 1.577-.406a11 11 0 0 0 1.516-.625c.488-.25.926-.523 1.312-.828q.576-.45.922-.984Zm-3.265.578c.3.368.703.704 1.203 1.016q.762.456 1.687.781.922.328 1.86.516a1.3 1.3 0 0 0-.235.281 3 3 0 0 0-.203.313 11.3 11.3 0 0 1-1.89-.578 10 10 0 0 1-1.704-.907A6 6 0 0 1 3.313-5.75Zm.218-.578h3.282v.61H3.688Zm-1.218 5 .359-.531q.545.064 1.125.156.576.095 1.156.219c.383.086.742.172 1.078.266q.516.128.891.25l-.344.593A18 18 0 0 0 5.922-1q-.719-.186-1.516-.344a16 16 0 0 0-1.515-.25m0 0"/><path id="t" d="M1.375-7.125h3.188v6.86H1.374V-.97h2.469v-5.453H1.375Zm-.469 0h.735V.563H.906Zm.422 2.922h2.89v.687h-2.89Zm1.188-4.64.859.155q-.157.486-.344 1a20 20 0 0 1-.344.86L2.047-7c.062-.164.125-.36.187-.578q.093-.329.172-.656.075-.34.11-.61m3.547 1.687h3.234v.718H6.062Zm2.953 0h.734v.39q-.066 1.815-.125 3.063a33 33 0 0 1-.156 2.047q-.082.784-.188 1.234-.112.439-.265.625a.9.9 0 0 1-.375.313 1.5 1.5 0 0 1-.47.125A13.576 13.576 0 0 1 6.61.625a1.7 1.7 0 0 0-.093-.39 1.3 1.3 0 0 0-.172-.376q.515.05.937.063h.625a.8.8 0 0 0 .25-.031q.107-.03.203-.141.124-.14.22-.562c.07-.282.128-.68.171-1.204q.076-.796.14-2.015c.04-.82.083-1.813.126-2.969ZM6.28-8.86l.75.172a15 15 0 0 1-.453 1.53c-.18.5-.375.977-.594 1.423q-.314.657-.671 1.156a7 7 0 0 0-.204-.14 3 3 0 0 0-.234-.173 2 2 0 0 0-.219-.14q.358-.47.657-1.078c.207-.414.39-.86.546-1.328q.246-.703.422-1.422m-.484 4.422.625-.344q.279.362.594.812.328.44.609.844c.188.273.336.512.453.719l-.672.422a6 6 0 0 0-.437-.75q-.269-.422-.578-.86-.3-.45-.594-.844m0 0"/><path id="u" d="M4.953-8.078h2.578v.64H4.953ZM4.47-6v1.047h4.234V-6Zm-.703-.61h5.656v2.266H3.766Zm1.656 2.782.547-.313q.515.392.843.907.329.515.485 1.078.17.55.187 1.078a3.1 3.1 0 0 1-.109.937q-.11.405-.344.61A1 1 0 0 1 6.61.75q-.203.077-.484.078-.3.013-.656-.015a3 3 0 0 0-.063-.344.9.9 0 0 0-.125-.344q.2.013.375.031c.125.008.227.016.313.016Q6.12.17 6.25.14a.4.4 0 0 0 .234-.172c.102-.094.18-.242.235-.453q.075-.33.047-.75a4 4 0 0 0-.172-.891 3.4 3.4 0 0 0-.438-.906 3.4 3.4 0 0 0-.734-.797m.687.594.5.265a6.5 6.5 0 0 1-.906.735q-.533.361-1.125.672-.597.298-1.125.484a3 3 0 0 0-.203-.266 1.7 1.7 0 0 0-.234-.234A15 15 0 0 0 4.125-2a10 10 0 0 0 1.11-.578c.35-.219.644-.438.874-.656m.563 1.015.547.25q-.422.516-1.078.985-.659.457-1.375.843a10 10 0 0 1-1.391.61 2.3 2.3 0 0 0-.219-.313 5 5 0 0 0-.234-.265 9 9 0 0 0 1.375-.516 9.5 9.5 0 0 0 1.344-.75q.639-.421 1.03-.844M9.016-3.89l.53.516q-.362.22-.796.453c-.281.156-.57.305-.86.438q-.421.205-.78.359l-.407-.422c.238-.101.5-.234.781-.39.282-.157.555-.317.829-.485q.403-.246.703-.469M5.109-8.812l.766.14a12.6 12.6 0 0 1-1.094 1.64 9 9 0 0 1-1.578 1.548.7.7 0 0 0-.14-.188 1.5 1.5 0 0 0-.204-.187L2.688-6c.382-.27.734-.566 1.046-.89q.468-.481.813-.985.34-.498.562-.937m2.141.734h.172l.156-.031.453.328q-.268.455-.625.922a7.5 7.5 0 0 1-.703.797 1.4 1.4 0 0 0-.187-.235 3 3 0 0 0-.22-.219 9 9 0 0 0 .36-.421 5 5 0 0 0 .594-1Zm1.063 5.14q.152.55.421 1.047.28.503.641.907.374.39.813.625a2.4 2.4 0 0 0-.282.297q-.141.168-.234.296-.704-.434-1.203-1.25a6.7 6.7 0 0 1-.766-1.765ZM6.359-6.405H7v.062q-.002.283-.062.64a3.1 3.1 0 0 1-.25.766c-.125.274-.32.547-.579.829q-.392.41-1.03.797-.644.392-1.61.703l-.203-.235a3 3 0 0 0-.25-.265q.921-.281 1.53-.625c.407-.239.727-.477.97-.72q.356-.373.53-.718.188-.357.25-.656.062-.31.063-.531ZM2.75-8.781l.75.219a16 16 0 0 1-.75 1.765 18 18 0 0 1-.937 1.625A9.7 9.7 0 0 1 .75-3.812a3.676 3.676 0 0 0-.281-.531 2.4 2.4 0 0 0-.172-.25q.497-.515.953-1.188.45-.67.844-1.438.386-.764.656-1.562M1.672-5.984l.734-.75.016.015V.813h-.75Zm0 0"/><path id="m" d="M.578-3.203C.578-.953 1.703.109 3.125.109c1.469 0 2.39-.953 2.39-2.53 0-1.438-.874-2.266-2.171-2.266-.906 0-1.469.375-1.781.875H1.5c.078-1.641.594-3.032 2.531-3.032.313 0 .657.047.907.125V-7.5c-.235-.078-.625-.11-.922-.11C1.188-7.61.578-5.36.578-3.202M3.125-.672c-1.062 0-1.61-1.015-1.61-1.922 0-.656.641-1.375 1.641-1.375.953 0 1.438.594 1.438 1.547 0 1.188-.594 1.75-1.469 1.75m0 0"/><path id="n" d="M3.031-5.719a4.1 4.1 0 0 0-1.922.485l.282.687c.453-.219 1-.437 1.578-.437.734 0 1.172.328 1.172 1.25v.343l-.953.032C1.344-3.313.483-2.687.483-1.562c0 1.14.75 1.671 1.766 1.671.953 0 1.406-.28 1.89-.906h.048L4.375 0h.672v-3.828c0-1.313-.656-1.89-2.016-1.89m.266 3 .828-.031v.5c0 1.094-.719 1.61-1.656 1.61-.61 0-1.031-.282-1.031-.907 0-.719.453-1.125 1.859-1.172m0 0"/><path id="o" d="M.75-.562c0 .5.297.703.64.703.36 0 .673-.203.673-.703 0-.516-.313-.704-.672-.704-.344 0-.641.188-.641.704m0 0"/><path id="p" d="M3.984-4.625c0-.016.016-.11.016-.11 0-.046-.016-.109-.11-.109-.14 0-.718.063-.89.078-.047 0-.156.016-.156.157 0 .093.11.093.187.093.328 0 .328.063.328.11s0 .093-.015.156l-.406 1.594c-.141-.235-.376-.422-.72-.422-.89 0-1.796.984-1.796 1.984C.422-.406.875.063 1.484.063c.375 0 .704-.204.985-.485.125.422.531.485.719.485.25 0 .421-.141.546-.36.157-.281.25-.672.25-.703 0-.094-.093-.094-.109-.094-.11 0-.11.032-.156.219-.094.344-.219.75-.516.75-.172 0-.234-.156-.234-.344 0-.125.015-.187.047-.281ZM2.5-.875c-.047.203-.203.344-.36.469-.062.062-.343.281-.64.281-.266 0-.516-.187-.516-.672 0-.375.204-1.14.375-1.422.313-.562.672-.656.86-.656.484 0 .625.531.625.61 0 .015-.016.078-.016.093Zm0 0"/><path id="q" d="M3.875-2.625c.031-.094.031-.11.031-.156 0-.14-.11-.219-.234-.219a.33.33 0 0 0-.281.156c-.032.047-.079.266-.11.406l-.156.579a20 20 0 0 1-.281 1.125S2.53-.125 2-.125c-.484 0-.484-.453-.484-.578 0-.375.156-.813.375-1.36.078-.218.109-.296.109-.421 0-.328-.281-.594-.656-.594C.64-3.078.328-2.125.328-2c0 .078.094.078.125.078.094 0 .094-.031.125-.11.172-.577.469-.843.75-.843.11 0 .172.078.172.234 0 .172-.062.313-.094.407C1.063-1.375 1-1.125 1-.812c0 .109 0 .437.266.671.218.172.515.204.703.204.281 0 .531-.094.75-.313-.078.39-.156.688-.453 1.031-.188.219-.47.438-.844.438-.047 0-.375 0-.516-.219.375-.047.375-.375.375-.39 0-.22-.203-.266-.265-.266-.172 0-.407.14-.407.469 0 .343.329.609.829.609C2.14 1.422 3 .875 3.218 0Zm0 0"/><path id="r" d="M1.734-.734c-.062.234-.296.609-.656.609-.016 0-.234 0-.375-.094a.44.44 0 0 0 .313-.39c0-.157-.125-.25-.282-.25a.407.407 0 0 0-.406.422c0 .343.39.5.734.5.329 0 .61-.188.782-.485.172.36.547.485.828.485.812 0 1.234-.86 1.234-1.063 0-.094-.094-.094-.11-.094-.108 0-.108.047-.14.125-.14.485-.562.844-.953.844-.281 0-.422-.187-.422-.453 0-.188.172-.813.36-1.594.14-.531.453-.703.687-.703.016 0 .219 0 .375.094a.43.43 0 0 0-.312.39c0 .141.125.25.28.25.157 0 .392-.125.392-.421 0-.391-.454-.516-.72-.516-.359 0-.64.234-.78.5-.126-.281-.454-.5-.844-.5C.937-3.078.5-2.218.5-2c0 .078.094.078.11.078.093 0 .093-.016.14-.11.172-.546.61-.843.953-.843.234 0 .422.125.422.453 0 .14-.094.485-.156.735Zm0 0"/><clipPath id="a"><path d="M234 183h5.422v5H234Zm0 0"/></clipPath><clipPath id="i"><path d="M.398 79h238.625v166.512H.398Zm0 0"/></clipPath></defs><path fill="none" stroke="#7f7f7f" stroke-miterlimit="10" stroke-width=".797" d="M13.656 187.98v-4.253m26.512 4.253v-4.253m26.516 4.253v-4.253m53.027 4.253v-4.253m26.512 4.253v-4.253m26.515 4.253v-4.253m26.512 4.253v-4.253m26.516 4.253v-4.253M91.07 245.512h4.25m-4.25-119.317h4.25m-4.25-59.66h4.25M91.07 6.88h4.25"/><path fill="none" stroke="#007f7f" stroke-miterlimit="10" stroke-width=".797" d="M.398 185.852h236.036"/><g clip-path="url(#a)"><path fill="#007f7f" d="m239.023 185.852-4.144-2.07 1.555 2.07-1.555 2.074"/></g><path fill="none" stroke="#007f7f" stroke-miterlimit="10" stroke-width=".797" d="M93.195 245.512V9.469"/><path fill="#007f7f" d="m93.195 6.879-2.07 4.144 2.07-1.554 2.075 1.554"/><use xlink:href="#b" x="6.946" y="198.644" fill="#007f7f"/><use xlink:href="#c" x="15.113" y="198.644" fill="#007f7f"/><use xlink:href="#b" x="33.46" y="198.644" fill="#007f7f"/><use xlink:href="#d" x="41.627" y="198.644" fill="#007f7f"/><use xlink:href="#b" x="59.974" y="198.644" fill="#007f7f"/><use xlink:href="#e" x="68.141" y="198.644" fill="#007f7f"/><use xlink:href="#e" x="117.085" y="198.644" fill="#007f7f"/><use xlink:href="#d" x="143.599" y="198.644" fill="#007f7f"/><use xlink:href="#c" x="170.112" y="198.644" fill="#007f7f"/><use xlink:href="#f" x="196.626" y="198.644" fill="#007f7f"/><use xlink:href="#g" x="223.14" y="198.644" fill="#007f7f"/><use xlink:href="#b" x="68.505" y="248.458" fill="#007f7f"/><g fill="#007f7f"><use xlink:href="#g" x="76.672" y="248.458"/><use xlink:href="#h" x="81.922" y="248.458"/></g><g fill="#007f7f"><use xlink:href="#g" x="76.672" y="129.578"/><use xlink:href="#h" x="81.922" y="129.578"/></g><g fill="#007f7f"><use xlink:href="#e" x="71.422" y="69.919"/><use xlink:href="#h" x="76.672" y="69.919"/><use xlink:href="#h" x="81.922" y="69.919"/></g><g fill="#007f7f"><use xlink:href="#e" x="71.422" y="10.261"/><use xlink:href="#g" x="76.672" y="10.261"/><use xlink:href="#h" x="81.922" y="10.261"/></g><g clip-path="url(#i)"><path fill="none" stroke="#ff7f00" stroke-miterlimit="10" stroke-width="1.594" d="m13.656 235.965 2.14-1.348 2.145-1.351 2.141-1.348 2.145-1.352 2.14-1.347 2.145-1.352 2.14-1.347 2.141-1.352 2.145-1.352 2.14-1.347 2.145-1.352 2.14-1.347 2.145-1.352 2.14-1.348 2.145-1.351 2.14-1.348 2.145-1.351 2.14-1.352 2.145-1.348 2.14-1.351 2.145-1.348 2.141-1.351 2.145-1.348 2.14-1.352 2.145-1.347 2.14-1.352 2.145-1.351 2.14-1.348 2.145-1.352 2.14-1.347 2.141-1.352 2.145-1.348 2.14-1.351 2.145-1.348 2.14-1.351 2.145-1.352 2.14-1.348 2.145-1.351 2.14-1.348 2.145-1.351 2.141-1.348 2.145-1.352 2.14-1.347 2.145-1.352 2.14-1.351 2.145-1.348 2.14-1.352 2.145-1.347 2.14-1.352 2.145-1.347 2.14-1.352 2.145-1.352 2.141-1.347 2.145-1.352 2.14-1.347 2.14-1.352 2.145-1.348 2.141-1.351 2.144-1.348 2.141-1.351 2.145-1.352 2.14-1.348 2.145-1.351 2.14-1.348 2.145-1.351 2.14-1.348 2.145-1.352 2.14-1.347 2.145-1.352 2.14-1.351 2.145-1.348 2.141-1.352 2.145-1.347 2.14-1.352 2.145-1.348 2.14-1.351 2.145-1.348 4.281-2.703 2.145-1.348 2.14-1.351 2.145-1.348 2.14-1.351 2.145-1.348 2.14-1.352 2.145-1.347 2.14-1.352 2.145-1.351 2.14-1.348 2.145-1.352 2.141-1.347 2.145-1.352 2.14-1.347 2.145-1.352 2.14-1.348 2.145-1.351 2.14-1.352 2.145-1.347 2.14-1.352"/></g><path fill="none" stroke="#ff7f00" stroke-dasharray="2.98883 2.98883" stroke-miterlimit="10" stroke-width=".797" d="M13.656 185.852v50.113M93.195 235.965H13.656M40.168 185.852v33.41M93.195 219.262H40.168M66.684 185.852v16.707M93.195 202.559H66.684M119.71 185.852v-16.704M93.195 169.148h26.516M146.223 185.852v-33.407M93.195 152.445h53.028M172.738 185.852v-50.114M93.195 135.738h79.543M199.25 185.852v-66.817M93.195 119.035H199.25M225.766 185.852v-83.52M93.195 102.332h132.57"/><use xlink:href="#j" x="229.162" y="181.945" fill="#007f7f"/><use xlink:href="#k" x="97.115" y="15.254" fill="#007f7f"/><use xlink:href="#l" x="66.025" y="266.009" fill="#007f7f"/><g fill="#007f7f"><use xlink:href="#m" x="79.255" y="266.009"/><use xlink:href="#n" x="85.261" y="266.009"/><use xlink:href="#o" x="91.151" y="266.009"/></g><g fill="#007f7f"><use xlink:href="#p" x="98.915" y="261.374"/><use xlink:href="#q" x="103.057" y="261.374"/></g><path fill="none" stroke="#007f7f" stroke-miterlimit="10" stroke-width=".436" d="M98.8 263.383h8.669"/><g fill="#007f7f"><use xlink:href="#p" x="98.801" y="269.63"/><use xlink:href="#r" x="102.943" y="269.63"/></g><use xlink:href="#s" x="111.579" y="266.009" fill="#007f7f"/><g fill="#007f7f"><use xlink:href="#e" x="122.646" y="266.009"/><use xlink:href="#f" x="127.896" y="266.009"/></g><use xlink:href="#j" x="133.162" y="266.009" fill="#007f7f"/><g fill="#007f7f"><use xlink:href="#t" x="141.893" y="266.009"/><use xlink:href="#l" x="152.393" y="266.009"/><use xlink:href="#u" x="162.893" y="266.009"/></g></svg>