<svg xmlns="http://www.w3.org/2000/svg" xmlns:xlink="http://www.w3.org/1999/xlink" width="292.147" height="207.547" viewBox="0 0 219.11 155.66"><defs><path id="a" d="M4.906-3.906c0-.563-.265-.735-.453-.735-.266 0-.516.266-.516.5 0 .141.047.204.172.313.22.219.36.484.36.86 0 .452-.64 2.859-1.875 2.859-.531 0-.781-.375-.781-.922 0-.578.28-1.36.609-2.219.078-.187.125-.328.125-.531 0-.469-.328-.86-.86-.86-.984 0-1.39 1.516-1.39 1.61 0 .11.11.11.14.11.094 0 .11-.017.157-.188.312-1.063.765-1.297 1.062-1.297.094 0 .266 0 .266.328 0 .266-.11.547-.172.734-.469 1.219-.61 1.703-.61 2.157 0 1.14.923 1.296 1.407 1.296 1.765 0 2.36-3.468 2.36-4.015m0 0"/><path id="c" d="M5.422-7.172c0-.016 0-.11-.14-.11-.157 0-1.157.095-1.329.11-.094.016-.156.063-.156.203 0 .125.094.125.25.125.516 0 .531.078.531.172l-.031.219-.625 2.484c-.188-.39-.5-.672-.969-.672C1.72-4.64.422-3.094.422-1.562.422-.578 1 .109 1.812.109c.22 0 .735-.03 1.376-.78a.95.95 0 0 0 .953.78c.359 0 .609-.234.765-.578.188-.375.328-1.015.328-1.031 0-.11-.093-.11-.125-.11-.109 0-.125.048-.156.188-.172.688-.36 1.313-.797 1.313-.281 0-.312-.282-.312-.485 0-.25.015-.328.062-.515ZM3.234-1.25c-.046.188-.046.203-.203.39-.469.579-.906.75-1.187.75-.532 0-.672-.577-.672-1 0-.515.328-1.812.578-2.296.313-.61.797-1 1.219-1 .672 0 .828.86.828.922s-.031.125-.031.172Zm0 0"/><path id="e" d="M3.672-.594a.94.94 0 0 0 .937.703c.375 0 .61-.234.782-.578.172-.375.312-1.015.312-1.031 0-.11-.094-.11-.125-.11-.11 0-.125.048-.156.188-.14.594-.344 1.313-.781 1.313-.22 0-.328-.141-.328-.485 0-.234.125-.734.218-1.094l.282-1.14c.03-.156.14-.547.187-.703.047-.25.156-.64.156-.703 0-.203-.14-.297-.312-.297-.047 0-.313.015-.407.375-.203.765-.656 2.61-.78 3.156-.016.047-.438.89-1.204.89-.547 0-.64-.484-.64-.859 0-.593.28-1.422.562-2.156.125-.312.172-.453.172-.656 0-.469-.328-.86-.86-.86-1 0-1.39 1.516-1.39 1.61 0 .11.11.11.14.11.094 0 .11-.017.157-.188.265-.907.672-1.297 1.062-1.297.094 0 .266 0 .266.343 0 .25-.11.563-.172.72-.39 1.03-.61 1.687-.61 2.202 0 1 .72 1.25 1.282 1.25.703 0 1.078-.468 1.25-.703m0 0"/><path id="b" d="M4.297-2.422h2.922c.156 0 .36 0 .36-.203s-.204-.203-.36-.203H4.297v-2.953c0-.14 0-.344-.219-.344-.203 0-.203.203-.203.344v2.953H.938c-.157 0-.344 0-.344.203s.187.203.344.203h2.937V.531c0 .14 0 .344.203.344.219 0 .219-.203.219-.344Zm0 0"/><path id="d" d="M3.328 6.11c0-1.548-.281-3.75-1.703-5.579C1.515.391.813-.437.609-.437c-.046 0-.125.015-.125.109 0 .047.016.078.063.11.516.562 1.234 1.452 1.672 3.187.25.984.36 2.11.36 3.125 0 1.11-.11 2.218-.392 3.281-.406 1.531-1.046 2.406-1.609 3.016-.094.093-.094.125-.094.14 0 .094.079.11.125.11.172 0 .766-.672.891-.813C2.625 10.5 3.328 8.547 3.328 6.11m0 0"/><path id="f" d="M2.953-1.125c-.047.14-.11.406-.11.406-.14.219-.421.594-.843.594-.484 0-.484-.453-.484-.578 0-.406.187-.906.39-1.422.047-.14.094-.234.094-.344 0-.375-.312-.61-.656-.61C.64-3.078.328-2.124.328-2c0 .078.094.078.125.078.094 0 .094-.031.125-.11.156-.562.469-.843.735-.843.125 0 .171.078.171.234 0 .172-.046.313-.125.47C.984-1.204.984-1 .984-.814c0 .11 0 .438.266.657.203.172.469.219.719.219.437 0 .672-.235.906-.454.156.454.61.454.703.454.235 0 .422-.125.547-.36.156-.281.25-.672.25-.703 0-.094-.094-.094-.11-.094-.109 0-.109.032-.156.219-.093.328-.218.75-.515.75-.172 0-.235-.156-.235-.344 0-.11.063-.375.11-.547.047-.187.125-.468.156-.625l.156-.625c.047-.171.125-.484.125-.515 0-.14-.11-.219-.234-.219-.25 0-.313.203-.36.422Zm0 0"/><path id="g" d="M3.719-2.531c0-.547-.328-.547-.344-.547A.4.4 0 0 0 3-2.703c0 .11.063.172.11.203.124.11.265.281.265.563 0 .312-.469 1.812-1.297 1.812-.562 0-.562-.5-.562-.625 0-.312.125-.703.39-1.36.047-.14.094-.25.094-.359 0-.375-.312-.61-.656-.61C.64-3.078.328-2.124.328-2c0 .078.094.078.125.078.094 0 .094-.031.125-.11.156-.562.453-.843.735-.843.125 0 .171.078.171.234 0 .172-.046.313-.125.47-.296.78-.375 1.077-.375 1.327 0 .688.547.907 1.079.907 1.171 0 1.656-2.016 1.656-2.594m0 0"/><path id="h" d="M3.984-4.625c0-.016.016-.11.016-.11 0-.046-.016-.109-.11-.109-.14 0-.718.063-.89.078-.047 0-.156.016-.156.157 0 .093.11.093.187.093.328 0 .328.063.328.11s0 .093-.015.156l-.406 1.594c-.141-.235-.376-.422-.72-.422-.89 0-1.796.984-1.796 1.984C.422-.406.875.063 1.484.063c.375 0 .704-.204.985-.485.125.422.531.485.719.485.25 0 .421-.141.546-.36.157-.281.25-.672.25-.703 0-.094-.093-.094-.109-.094-.11 0-.11.032-.156.219-.094.344-.219.75-.516.75-.172 0-.234-.156-.234-.344 0-.125.015-.187.047-.281ZM2.5-.875c-.047.203-.203.344-.36.469-.062.062-.343.281-.64.281-.266 0-.516-.187-.516-.672 0-.375.204-1.14.375-1.422.313-.562.672-.656.86-.656.484 0 .625.531.625.61 0 .015-.016.078-.016.093Zm0 0"/><path id="i" d="M6.922-2.422c.172 0 .36 0 .36-.203s-.188-.203-.36-.203H1.234c-.171 0-.359 0-.359.203s.188.203.36.203Zm0 0"/><path id="j" d="M4.875-3.266c.078-.078.094-.125.094-.171 0-.11-.078-.172-.157-.172-.078 0-.093.015-.171.109L3.109-1.984 1.58-3.516c-.079-.062-.095-.093-.157-.093-.11 0-.188.078-.188.172 0 .062.032.078.11.171L2.859-1.75 1.344-.234c-.094.109-.11.14-.11.172 0 .109.079.187.188.187.062 0 .078-.031.156-.11L3.11-1.5 4.703.078a.14.14 0 0 0 .11.047c.078 0 .156-.062.156-.187 0-.047 0-.063-.032-.079A71 71 0 0 0 3.36-1.734Zm0 0"/><path id="k" d="M2.938-.969h-.22c0 .094-.062.407-.14.453-.031.032-.453.032-.531.032h-.969c.328-.235.688-.516.984-.72.454-.312.876-.593.876-1.124 0-.64-.61-.985-1.313-.985-.672 0-1.172.376-1.172.876 0 .25.219.296.297.296a.283.283 0 0 0 .281-.296.27.27 0 0 0-.281-.282c.14-.234.438-.375.766-.375.484 0 .89.281.89.766 0 .422-.297.75-.672 1.062L.516-.234c-.047.047-.063.047-.063.078V0h2.313Zm0 0"/></defs><path fill="none" stroke="#007f7f" stroke-miterlimit="10" stroke-width=".399" d="M46.46 18.305h85.044"/><use xlink:href="#a" x="3.5" y="30.016" fill="#007f7f"/><use xlink:href="#b" x="11.299" y="30.016" fill="#007f7f"/><g fill="#007f7f"><use xlink:href="#c" x="21.799" y="30.016"/><use xlink:href="#a" x="27.259" y="30.016"/></g><use xlink:href="#d" x="42.975" y="20.697" fill="#007f7f"/><use xlink:href="#e" x="47.975" y="29.432" fill="#007f7f"/><use xlink:href="#b" x="56.319" y="29.432" fill="#007f7f"/><g fill="#007f7f"><use xlink:href="#c" x="66.819" y="29.432"/><use xlink:href="#e" x="72.279" y="29.432"/></g><use xlink:href="#f" x="71.486" y="8.342" fill="#007f7f"/><path fill="none" stroke="#007f7f" stroke-miterlimit="10" stroke-width=".436" d="M71.484 9.852h4.711"/><use xlink:href="#g" x="71.724" y="16.097" fill="#007f7f"/><use xlink:href="#b" x="79.725" y="12.477" fill="#007f7f"/><g fill="#007f7f"><use xlink:href="#h" x="91.421" y="8.342"/><use xlink:href="#f" x="95.563" y="8.342"/></g><path fill="none" stroke="#007f7f" stroke-miterlimit="10" stroke-width=".436" d="M91.422 9.852h8.855"/><use xlink:href="#g" x="93.732" y="16.097" fill="#007f7f"/><use xlink:href="#i" x="103.807" y="12.477" fill="#007f7f"/><use xlink:href="#f" x="115.503" y="8.342" fill="#007f7f"/><use xlink:href="#j" x="120.213" y="8.342" fill="#007f7f"/><g fill="#007f7f"><use xlink:href="#h" x="126.44" y="8.342"/><use xlink:href="#g" x="130.582" y="8.342"/></g><path fill="none" stroke="#007f7f" stroke-miterlimit="10" stroke-width=".436" d="M115.504 9.852h19.316"/><use xlink:href="#g" x="121.101" y="16.097" fill="#007f7f"/><use xlink:href="#k" x="125.336" y="14.105" fill="#007f7f"/><use xlink:href="#i" x="39.109" y="49.328" fill="#007f7f"/><use xlink:href="#e" x="47.275" y="49.328" fill="#007f7f"/><use xlink:href="#i" x="55.619" y="49.328" fill="#007f7f"/><use xlink:href="#f" x="67.315" y="45.193" fill="#007f7f"/><use xlink:href="#j" x="72.025" y="45.193" fill="#007f7f"/><g fill="#007f7f"><use xlink:href="#h" x="78.252" y="45.193"/><use xlink:href="#g" x="82.394" y="45.193"/></g><path fill="none" stroke="#007f7f" stroke-miterlimit="10" stroke-width=".436" d="M67.316 46.703h19.32"/><use xlink:href="#g" x="74.857" y="52.948" fill="#007f7f"/><path fill="none" stroke="#007f7f" stroke-miterlimit="10" stroke-width=".399" d="M46.46 55.152h85.044"/><g fill="#007f7f"><use xlink:href="#c" x="65.972" y="66.336"/><use xlink:href="#e" x="71.432" y="66.336"/></g><use xlink:href="#i" x="79.781" y="66.336" fill="#007f7f"/><use xlink:href="#f" x="91.476" y="62.201" fill="#007f7f"/><use xlink:href="#j" x="96.187" y="62.201" fill="#007f7f"/><g fill="#007f7f"><use xlink:href="#h" x="102.413" y="62.201"/><use xlink:href="#g" x="106.555" y="62.201"/></g><path fill="none" stroke="#007f7f" stroke-miterlimit="10" stroke-width=".436" d="M91.477 63.71h19.32"/><use xlink:href="#g" x="99.018" y="69.956" fill="#007f7f"/><use xlink:href="#i" x="59.815" y="83.344" fill="#007f7f"/><g fill="#007f7f"><use xlink:href="#c" x="67.981" y="83.344"/><use xlink:href="#e" x="73.441" y="83.344"/></g><use xlink:href="#i" x="81.79" y="83.344" fill="#007f7f"/><g fill="#007f7f"><use xlink:href="#h" x="93.486" y="79.209"/><use xlink:href="#f" x="97.628" y="79.209"/></g><use xlink:href="#j" x="102.344" y="79.209" fill="#007f7f"/><g fill="#007f7f"><use xlink:href="#h" x="108.57" y="79.209"/><use xlink:href="#g" x="112.712" y="79.209"/></g><path fill="none" stroke="#007f7f" stroke-miterlimit="10" stroke-width=".436" d="M93.484 80.719h23.47"/><use xlink:href="#g" x="103.102" y="86.964" fill="#007f7f"/><path fill="none" stroke="#007f7f" stroke-miterlimit="10" stroke-width=".399" d="M60.637 89.172h70.867"/><use xlink:href="#i" x="85.879" y="106.022" fill="#007f7f"/><use xlink:href="#f" x="95.241" y="101.887" fill="#007f7f"/><use xlink:href="#j" x="99.951" y="101.887" fill="#007f7f"/><g fill="#007f7f"><use xlink:href="#h" x="106.178" y="101.887"/><use xlink:href="#g" x="110.32" y="101.887"/></g><path fill="none" stroke="#007f7f" stroke-miterlimit="10" stroke-width=".436" d="M95.242 103.398h19.317"/><use xlink:href="#g" x="102.783" y="109.642" fill="#007f7f"/><use xlink:href="#i" x="118.089" y="106.022" fill="#007f7f"/><g fill="#007f7f"><use xlink:href="#h" x="129.785" y="101.887"/><use xlink:href="#f" x="133.927" y="101.887"/></g><use xlink:href="#j" x="138.642" y="101.887" fill="#007f7f"/><g fill="#007f7f"><use xlink:href="#h" x="144.869" y="101.887"/><use xlink:href="#g" x="149.011" y="101.887"/></g><path fill="none" stroke="#007f7f" stroke-miterlimit="10" stroke-width=".436" d="M129.785 103.398h23.469"/><use xlink:href="#g" x="139.401" y="109.642" fill="#007f7f"/><use xlink:href="#f" x="97.503" y="118.895" fill="#007f7f"/><use xlink:href="#j" x="102.213" y="118.895" fill="#007f7f"/><g fill="#007f7f"><use xlink:href="#h" x="108.44" y="118.895"/><use xlink:href="#g" x="112.582" y="118.895"/></g><path fill="none" stroke="#007f7f" stroke-miterlimit="10" stroke-width=".436" d="M97.504 120.406h19.32"/><use xlink:href="#g" x="105.045" y="126.65" fill="#007f7f"/><use xlink:href="#b" x="120.352" y="123.03" fill="#007f7f"/><use xlink:href="#g" x="132.047" y="118.895" fill="#007f7f"/><use xlink:href="#j" x="136.282" y="118.895" fill="#007f7f"/><g fill="#007f7f"><use xlink:href="#h" x="142.509" y="118.895"/><use xlink:href="#g" x="146.651" y="118.895"/></g><use xlink:href="#j" x="150.892" y="118.895" fill="#007f7f"/><g fill="#007f7f"><use xlink:href="#h" x="157.118" y="118.895"/><use xlink:href="#g" x="161.26" y="118.895"/></g><path fill="none" stroke="#007f7f" stroke-miterlimit="10" stroke-width=".436" d="M132.047 120.406H165.5"/><use xlink:href="#g" x="144.712" y="126.65" fill="#007f7f"/><use xlink:href="#k" x="148.948" y="124.658" fill="#007f7f"/><path fill="none" stroke="#007f7f" stroke-miterlimit="10" stroke-width=".399" d="M88.98 131.691h99.215"/><use xlink:href="#i" x="132.433" y="148.542" fill="#007f7f"/><g fill="#007f7f"><use xlink:href="#h" x="141.795" y="144.407"/><use xlink:href="#f" x="145.937" y="144.407"/></g><use xlink:href="#j" x="150.652" y="144.407" fill="#007f7f"/><g fill="#007f7f"><use xlink:href="#h" x="156.879" y="144.407"/><use xlink:href="#g" x="161.021" y="144.407"/></g><path fill="none" stroke="#007f7f" stroke-miterlimit="10" stroke-width=".436" d="M141.797 145.918h23.465"/><use xlink:href="#g" x="151.411" y="152.162" fill="#007f7f"/><use xlink:href="#b" x="168.791" y="148.542" fill="#007f7f"/><use xlink:href="#f" x="180.486" y="144.407" fill="#007f7f"/><use xlink:href="#j" x="185.196" y="144.407" fill="#007f7f"/><g fill="#007f7f"><use xlink:href="#h" x="191.423" y="144.407"/><use xlink:href="#g" x="195.565" y="144.407"/></g><use xlink:href="#j" x="199.806" y="144.407" fill="#007f7f"/><g fill="#007f7f"><use xlink:href="#h" x="206.032" y="144.407"/><use xlink:href="#g" x="210.174" y="144.407"/></g><path fill="none" stroke="#007f7f" stroke-miterlimit="10" stroke-width=".436" d="M180.484 145.918h33.93"/><use xlink:href="#g" x="193.389" y="152.162" fill="#007f7f"/><use xlink:href="#k" x="197.624" y="150.17" fill="#007f7f"/></svg>