<?xml version="1.0" encoding="UTF-8" standalone="no"?>
<svg
   width="1024"
   height="1024"
   viewBox="0 0 270.93333 270.93333"
   xml:space="preserve"
   version="1.1"
   id="svg2"
   sodipodi:docname="youkre.svg"
   inkscape:version="1.4 (e7c3feb1, 2024-10-09)"
   xmlns:inkscape="http://www.inkscape.org/namespaces/inkscape"
   xmlns:sodipodi="http://sodipodi.sourceforge.net/DTD/sodipodi-0.dtd"
   xmlns="http://www.w3.org/2000/svg"
   xmlns:svg="http://www.w3.org/2000/svg"><defs
     id="defs2" /><sodipodi:namedview
     id="namedview2"
     pagecolor="#ffffff"
     bordercolor="#000000"
     borderopacity="0.25"
     inkscape:showpageshadow="2"
     inkscape:pageopacity="0.0"
     inkscape:pagecheckerboard="0"
     inkscape:deskcolor="#d1d1d1"
     inkscape:zoom="0.55185337"
     inkscape:cx="547.24682"
     inkscape:cy="473.85776"
     inkscape:window-width="1920"
     inkscape:window-height="942"
     inkscape:window-x="0"
     inkscape:window-y="25"
     inkscape:window-maximized="1"
     inkscape:current-layer="svg2" /><path
     style="fill:#cabdab;fill-opacity:1;stroke-width:0.90311"
     d="M 0,0.252 H 270.93333 V 271.18533 H 0 Z"
     id="path1" /><path
     style="fill:none;stroke:#1e2d35;stroke-width:5.72003"
     d="m 231.59808,148.99824 c 0.52906,0.86357 2.63168,4.26666 2.43029,7.04512 -0.20139,2.7648 -1.00352,4.70357 -5.07904,4.62165 -7.57077,-0.15019 -16.63317,-2.59072 -24.67157,-1.82272 -13.05259,1.24587 -28.33067,5.86069 -39.65952,11.52683 -7.79606,3.89802 -14.08,8.71082 -20.27179,13.86837 -1.88757,1.57355 -5.8368,4.64213 -8.81323,4.608 -4.79914,-0.0546 -8.52309,-5.12 -12.33578,-8.00427 -7.21237,-5.46133 -19.22731,-11.85109 -28.204375,-15.26101 -12.025173,-4.57045 -24.057173,-6.00747 -37.014186,-6.00747 -8.215893,0 -14.636373,1.62816 -21.152426,1.7647 v -1.90464 c 0.05803,-5.8095 0.989867,-5.23264 1.706667,-10.43456 0.32768,-2.38934 0.211626,-3.5055 0.566613,-6.1679 0.638293,-4.79573 0.98304,-10.95679 1.62816,-15.86517 1.378986,-10.51306 1.29024,-21.21045 2.51904,-31.726931 0.600746,-5.137067 -0.293547,-20.077227 5.08928,-22.39488 5.49888,-2.368853 14.12096,-2.28352 20.217173,-2.28352 17.62304,0 36.307624,5.57056 51.118084,15.06304 4.29056,2.751147 12.7488,8.41728 14.95722,12.407466 2.34837,4.242775 0.90453,9.608535 0.90453,14.834345 v 37.89483 c 0,4.69674 0.0205,13.4417 0,17.62645 -0.0171,4.07893 -0.36181,5.51936 0,8.81323 2.00363,-0.90795 4.01408,-1.39947 7.05195,-3.75467 2.42347,-1.87733 6.11669,-5.35893 8.81323,-7.40352 8.37973,-6.34539 18.21013,-11.18208 28.20096,-14.66709 12.52693,-4.36907 26.05056,-5.38966 38.77888,-3.88779 2.30741,0.27307 3.8912,0.50176 6.16789,0.65195 3.13344,0.21162 4.87083,0.6417 7.93259,-0.0205 -3.32118,-13.95029 -3.28363,-38.99051 -5.02784,-55.524694 -0.4335,-4.143787 -0.66902,-9.216 -1.0752,-13.21984 -0.19456,-1.921707 -0.1024,-4.092587 -1.60427,-5.635414 -3.03787,-3.13344 -9.89184,-2.082133 -14.32576,-2.669226 -19.69493,-2.594134 -40.54016,3.90144 -57.28597,13.482666 -6.89494,3.945814 -12.01494,8.2944 -17.62646,12.448427 m 92.53888,-9.693867 c 6.05526,0.0068 8.38315,-1.194666 10.5472,4.42368 2.36886,6.144 1.30731,15.482878 2.16747,22.015998 0.31061,2.38592 0.39936,3.91851 0.58027,6.17131 0.3345,4.13013 0.93866,9.06923 1.4336,13.21984 0.65536,5.46474 1.18101,11.78282 1.87733,17.62304 0.5632,4.67626 1.67253,10.45845 1.86709,14.98453 0.11264,2.56 0.52907,5.53643 -0.49493,7.76533 -1.25611,2.72726 -3.8912,2.09579 -6.51947,1.70667 -5.66613,-0.83968 -12.63274,-1.86709 -18.50709,-2.78187 -18.92011,-2.94912 -39.92576,2.16064 -56.40533,11.20939 -9.0863,4.99029 -17.52064,15.31563 -28.20096,15.57845 -9.65973,0.23552 -15.33269,-5.9904 -22.91371,-11.14112 -3.01738,-2.05141 -5.62176,-3.72394 -8.81322,-5.36234 -15.100591,-7.76192 -36.553391,-12.61568 -53.760004,-10.16491 -5.9392,0.84651 -13.673813,1.91147 -19.387733,2.81259 -2.2016,0.34474 -5.553493,1.21856 -6.77888,-1.10251 -1.01376,-1.92512 -0.320853,-4.00384 -0.28672,-5.87776 0.03072,-1.67936 0.546133,-8.51627 0.744107,-10.57451 0.863573,-8.9361 1.829546,-17.99509 3.04128,-27.32031 0.62464,-4.8128 1.119573,-9.59147 1.4336,-14.10048 0.464213,-6.61504 0.80896,-15.7184 2.041173,-22.033071 0.669013,-3.413333 1.901227,-4.90496 5.102933,-5.96992 2.205014,-0.730453 4.765013,-0.904533 6.157653,-1.082027 m 14.984534,1.764694 c 23.063893,-1.82272 42.212697,2.973013 61.689177,14.981124 m 31.72693,0 C 170.97728,91.097866 190.17045,88.083892 213.09098,89.066932 M 57.098239,100.52891 c 22.493867,-2.843311 43.963731,1.7681 62.573231,14.98453 m 30.84629,0 c 12.10368,-8.15787 25.89696,-14.25067 40.54016,-15.714988 6.94954,-0.69632 17.42506,-0.576853 22.9137,0.730458 M 55.333546,111.98747 c 6.188373,-1.60427 17.85856,-2.5839 25.55904,-1.22198 13.550933,2.39275 28.914344,9.71094 39.662934,16.2031 m 29.96224,0 c 20.0704,-12.38358 39.7585,-18.85867 63.45386,-15.86176 m -158.638074,10.5745 c 21.76,-4.03797 47.298564,1.75787 64.337924,15.86517 m 31.72693,0 c 16.91306,-13.00138 42.14784,-20.93738 63.45386,-15.86517 M 54.452906,132.25584 c 6.638933,-1.23563 16.0256,-2.25963 23.79776,-0.94891 15.264426,2.57024 29.986134,8.22613 42.301444,17.69472 m 30.84629,0 c 11.9057,-9.41739 25.52832,-15.02549 40.54016,-17.55477 8.58794,-1.44725 17.18613,-1.53259 24.6784,1.69301 m -177.145174,16.7424 c 5.618347,-0.75435 18.746027,-2.67947 26.43968,-2.64192 6.826666,0.0341 12.127573,1.30731 19.387733,2.95253 11.264,2.54635 21.947731,6.912 31.726931,13.568 3.15392,2.14699 7.97014,6.7311 10.57792,8.79275 3.09248,2.44395 5.0176,2.56341 7.04854,2.88768 m 97.82613,-14.98453 4.40661,3.52597"
     id="path2" /></svg>
